<svg xmlns="http://www.w3.org/2000/svg" width="20" height="20" viewBox="-219.5 540.5 20 20"><path fill="#898989" d="M-214.81 546.007v2.86h-1.224c-.903 0-1.634.73-1.634 1.633v8.17c0 .902.73 1.634 1.634 1.634h13.07c.903 0 1.634-.73 1.634-1.634v-8.17c0-.902-.73-1.633-1.634-1.633h-1.225v-2.86c0-2.932-2.376-5.31-5.31-5.31s-5.31 2.378-5.31 5.31zm2.043 2.86v-2.86c0-1.805 1.462-3.267 3.268-3.267s3.27 1.462 3.27 3.267v2.86h-6.537zm1.634 4.493c0-.903.73-1.635 1.634-1.635s1.635.73 1.635 1.635c0 .575-.298 1.082-.748 1.372 0 0 .16.964.34 2.1 0 .34-.274.612-.613.612h-1.226c-.34 0-.612-.273-.612-.612l.34-2.1c-.45-.29-.75-.796-.75-1.372z"/></svg>