<?xml version="1.0" encoding="utf-8"?>
<!-- Generator: Adobe Illustrator 16.0.4, SVG Export Plug-In . SVG Version: 6.00 Build 0)  -->
<!DOCTYPE svg PUBLIC "-//W3C//DTD SVG 1.1//EN" "http://www.w3.org/Graphics/SVG/1.1/DTD/svg11.dtd">
<svg version="1.1" id="Layer_1" xmlns="http://www.w3.org/2000/svg" xmlns:xlink="http://www.w3.org/1999/xlink" x="0px" y="0px"
	 width="126.594px" height="100px" viewBox="0 0 126.594 100" enable-background="new 0 0 126.594 100" xml:space="preserve">
<g>
	<circle fill="#EEB753" cx="63.32" cy="48.015" r="43.901"/>
	<g>
		<path fill="#EEB753" d="M63.32,95.363c-26.106,0-47.348-21.242-47.348-47.349S37.214,0.669,63.32,0.669
			c26.107,0,47.348,21.239,47.348,47.346S89.428,95.363,63.32,95.363z"/>
		<path fill="#FFFFFF" d="M63.32,1.338c25.779,0,46.679,20.898,46.679,46.677c0,25.781-20.899,46.679-46.679,46.679
			S16.644,73.796,16.644,48.015C16.644,22.236,37.541,1.338,63.32,1.338 M63.32,0C50.495,0,38.437,4.994,29.368,14.064
			C20.3,23.131,15.304,35.19,15.304,48.015c0,12.827,4.996,24.884,14.064,33.954c9.068,9.068,21.127,14.062,33.952,14.062
			c12.826,0,24.884-4.994,33.953-14.062c9.068-9.07,14.063-21.127,14.063-33.954c0-12.824-4.995-24.884-14.063-33.95
			C88.204,4.994,76.146,0,63.32,0L63.32,0z"/>
	</g>
	<circle fill="#DDA83C" cx="63.319" cy="48.015" r="40.721"/>
	<circle fill="#C8982C" cx="63.335" cy="48.015" r="37.542"/>
	<g opacity="0.3">
		<defs>
			<circle id="SVGID_1_" opacity="0.3" cx="63.335" cy="48.015" r="37.542"/>
		</defs>
		<clipPath id="SVGID_2_">
			<use xlink:href="#SVGID_1_"  overflow="visible"/>
		</clipPath>
		<g clip-path="url(#SVGID_2_)">
			<g>
				<ellipse fill="#EEB753" cx="32.442" cy="79.961" rx="32.442" ry="26.652"/>
				<path fill="#C8982C" d="M61.385,79.961c0-13.132-12.959-23.777-28.941-23.777c-15.983,0-28.941,10.646-28.941,23.777
					c0,13.129,12.958,23.773,28.941,23.773C48.426,103.734,61.385,93.09,61.385,79.961z"/>
				<ellipse fill="#EEB753" cx="32.443" cy="79.961" rx="25.193" ry="20.699"/>
				<ellipse fill="#C8982C" cx="32.444" cy="79.961" rx="21.925" ry="18.012"/>
				<ellipse fill="#EEB753" cx="32.442" cy="79.961" rx="18.014" ry="14.799"/>
			</g>
			<g>
				<path fill="#EEB753" d="M102.237,79.961c0-14.72-14.522-26.652-32.441-26.652c-17.916,0-32.441,11.933-32.441,26.652
					c-8.144,35.824,14.525,36.896,32.441,36.896C87.715,116.857,102.237,94.681,102.237,79.961z"/>
				<path fill="#C8982C" d="M98.737,79.961c0-13.132-12.957-23.777-28.941-23.777c-15.983,0-28.939,10.646-28.939,23.777
					c-1.635,23.586,12.956,34.02,28.939,34.02C85.78,113.98,98.737,93.09,98.737,79.961z"/>
				<path fill="#EEB753" d="M94.99,79.961c0-11.432-11.279-20.699-25.194-20.699c-13.914,0-25.193,9.268-25.193,20.699
					c0,11.43,11.279,30.942,25.193,30.942C83.711,110.903,94.99,91.391,94.99,79.961z"/>
				<path fill="#C8982C" d="M91.722,79.961c0-9.949-9.815-18.012-21.926-18.012c-12.107,0-21.924,8.062-21.924,18.012
					c0,9.947,9.816,28.256,21.924,28.256C81.906,108.217,91.722,89.908,91.722,79.961z"/>
				<path fill="#EEB753" d="M87.811,79.961c0,8.172-8.063,25.044-18.015,25.044c-9.949,0-29.905-7.019-18.014-25.044
					c0-8.175,8.064-14.802,18.014-14.802C79.747,65.159,87.811,71.786,87.811,79.961z"/>
			</g>
		</g>
	</g>
	<g>
		<g>
			<polygon fill="#EEB753" points="80.495,53.717 79.957,53.694 80.125,49.729 79.788,47.072 80.118,44.539 80.66,44.533 
				80.328,47.072 80.663,49.707 			"/>
		</g>
		<g>
			<polygon fill="#EEB753" points="80.909,46.728 81.881,46.02 83.657,46.728 84.13,47.201 82.546,47.336 81.858,47.881 
				80.909,47.316 80.688,46.951 			"/>
			<polygon fill="#C8982C" points="80.998,46.951 81.928,46.335 83.462,46.85 82.062,46.85 			"/>
		</g>
		<g>
			<polygon fill="#EEB753" points="81.025,49.721 81.604,49.297 82.663,49.721 82.945,49.999 82.001,50.081 81.591,50.406 
				81.025,50.069 80.892,49.852 			"/>
			<polygon fill="#C8982C" points="81.078,49.852 81.631,49.485 82.548,49.791 81.713,49.791 			"/>
		</g>
		<g>
			<polygon fill="#EEB753" points="79.708,48.503 78.789,48.025 77.089,48.161 76.342,48.855 77.11,48.675 77.793,48.945 
				78.024,49.281 78.945,49.459 79.484,49.078 			"/>
			<polygon fill="#C8982C" points="79.395,48.541 78.623,48.25 77.346,48.34 78.635,48.743 			"/>
		</g>
		<g>
			<path fill="#EEB753" d="M82.905,44.388c-0.015,0.108-0.114,0.183-0.22,0.169l-4.436-0.604c-0.108-0.016-0.184-0.114-0.167-0.222
				l0.795-5.846c0.015-0.107,0.114-0.184,0.22-0.168l4.436,0.605c0.108,0.015,0.184,0.112,0.169,0.22L82.905,44.388z"/>
			<polygon fill="#C8982C" points="82.632,43.649 82.632,43.649 78.467,43.08 78.467,43.08 79.15,38.062 79.15,38.062 
				83.316,38.632 83.316,38.632 			"/>
			<circle fill="#C8982C" cx="80.458" cy="43.823" r="0.179"/>
		</g>
	</g>
	<g>
		<g>
			<polygon fill="#EEB753" points="38.721,52.824 38.254,52.806 38.398,49.361 38.105,47.055 38.394,44.854 38.865,44.849 
				38.575,47.057 38.867,49.343 			"/>
		</g>
		<g>
			<polygon fill="#EEB753" points="39.082,46.755 39.925,46.142 41.469,46.755 41.877,47.165 40.502,47.283 39.906,47.756 
				39.082,47.265 38.889,46.947 			"/>
			<polygon fill="#C8982C" points="39.16,46.947 39.966,46.413 41.298,46.859 40.082,46.859 			"/>
		</g>
		<g>
			<polygon fill="#EEB753" points="39.182,49.354 39.684,48.987 40.604,49.354 40.851,49.598 40.03,49.667 39.673,49.949 
				39.182,49.657 39.066,49.468 			"/>
			<polygon fill="#C8982C" points="39.227,49.468 39.708,49.149 40.504,49.415 39.778,49.415 			"/>
		</g>
		<g>
			<polygon fill="#EEB753" points="38.037,48.296 37.24,47.883 35.763,48 35.113,48.604 35.781,48.447 36.374,48.679 36.575,48.972 
				37.377,49.127 37.844,48.797 			"/>
			<polygon fill="#C8982C" points="37.766,48.33 37.096,48.078 35.985,48.154 37.105,48.506 			"/>
		</g>
		<g>
			<path fill="#EEB753" d="M40.814,44.723c-0.013,0.095-0.099,0.16-0.191,0.146l-3.854-0.525c-0.093-0.012-0.159-0.099-0.145-0.193
				l0.69-5.076c0.014-0.092,0.101-0.158,0.193-0.146l3.853,0.525c0.093,0.013,0.159,0.098,0.145,0.193L40.814,44.723z"/>
			<polygon fill="#C8982C" points="40.577,44.079 40.577,44.079 36.96,43.586 36.96,43.586 37.554,39.229 37.554,39.229 
				41.171,39.722 41.171,39.722 			"/>
			<circle fill="#C8982C" cx="38.69" cy="44.232" r="0.156"/>
		</g>
	</g>
	<g>
		<g>
			<polygon fill="#EEB753" points="90.961,59.066 90.544,59.049 90.674,55.974 90.412,53.914 90.67,51.947 91.089,51.942 
				90.83,53.914 91.091,55.956 			"/>
		</g>
		<g>
			<polygon fill="#EEB753" points="91.282,53.646 92.036,53.098 93.415,53.646 93.78,54.012 92.553,54.117 92.02,54.54 
				91.282,54.102 91.11,53.816 			"/>
			<polygon fill="#C8982C" points="91.353,53.816 92.073,53.34 93.265,53.738 92.177,53.738 			"/>
		</g>
		<g>
			<polygon fill="#EEB753" points="91.372,55.966 91.822,55.639 92.645,55.966 92.862,56.184 92.13,56.245 91.812,56.499 
				91.372,56.236 91.27,56.068 			"/>
			<polygon fill="#C8982C" points="91.413,56.068 91.844,55.783 92.555,56.021 91.906,56.021 			"/>
		</g>
		<g>
			<polygon fill="#EEB753" points="90.352,55.022 89.638,54.651 88.319,54.757 87.738,55.295 88.334,55.156 88.864,55.365 
				89.046,55.626 89.76,55.764 90.178,55.47 			"/>
			<polygon fill="#C8982C" points="90.109,55.052 89.51,54.826 88.517,54.896 89.519,55.209 			"/>
		</g>
		<g>
			<path fill="#EEB753" d="M92.832,51.83c-0.012,0.083-0.088,0.142-0.173,0.131l-3.439-0.47c-0.085-0.012-0.142-0.088-0.13-0.172
				l0.616-4.533c0.012-0.085,0.09-0.144,0.173-0.134l3.44,0.472c0.083,0.011,0.144,0.089,0.131,0.171L92.832,51.83z"/>
			<polygon fill="#C8982C" points="92.618,51.256 92.618,51.256 89.388,50.816 89.388,50.816 89.919,46.923 89.919,46.923 
				93.15,47.365 93.15,47.365 			"/>
			<circle fill="#C8982C" cx="90.933" cy="51.392" r="0.139"/>
		</g>
	</g>
</g>
<g>
	<g>
		<polygon fill="#FFFFFF" points="62.851,81.788 60.423,81.684 61.177,66.071 59.65,54.065 61.106,42.899 63.613,42.954 
			62.103,54.069 63.613,65.967 		"/>
	</g>
	<g>
		<polygon fill="#FFFFFF" points="59.299,49.061 55.146,46.9 47.446,47.511 44.07,50.65 47.549,49.839 50.635,51.057 51.685,52.573 
			55.854,53.384 58.284,51.662 		"/>
		<polygon fill="#C8982C" points="57.879,49.23 54.386,47.913 48.612,48.32 54.435,50.143 		"/>
	</g>
	<g>
		<polygon fill="#FFFFFF" points="63.923,53.77 68.31,50.572 76.352,53.77 78.479,55.904 71.325,56.511 68.22,58.979 63.923,56.42 
			62.919,54.775 		"/>
		<polygon fill="#C8982C" points="64.326,54.775 68.529,51.989 75.463,54.319 69.138,54.319 		"/>
	</g>
	<g>
		<path fill="#FFFFFF" d="M72.099,42.137c-0.056,0.412-0.435,0.699-0.845,0.644L54.303,40.47c-0.412-0.055-0.698-0.435-0.642-0.848
			l3.045-22.34c0.057-0.41,0.436-0.698,0.846-0.644l16.95,2.311c0.411,0.057,0.699,0.437,0.643,0.846L72.099,42.137z"/>
		<polygon fill="#C8982C" points="71.056,39.309 71.056,39.309 55.138,37.138 55.138,37.138 57.75,17.961 57.75,17.961 
			73.669,20.131 73.669,20.131 		"/>
		<path fill="#C8982C" d="M63.429,40.071c-0.049,0.377-0.397,0.64-0.773,0.589c-0.38-0.053-0.643-0.4-0.59-0.775
			c0.051-0.378,0.397-0.642,0.775-0.591C63.217,39.344,63.48,39.693,63.429,40.071z"/>
	</g>
</g>
<g>
	<g>
		<g>
			<path fill="#FFFFFF" d="M122.539,97.833c-6.971-1.029-20.928-2.391-20.928-2.391l3.2-23.106c0,0,13.778,1.396,20.662,2.414
				c-0.499,3.927-7.935,10.552-7.935,10.552S123.021,94.065,122.539,97.833z"/>
			<path fill="#D1D3D4" d="M123.313,98.699l-11.329-1.37l-2.612-0.317l-2.613-0.269l-5.223-0.539l-0.794-0.081l0.108-0.786
				l3.202-23.104l0.103-0.737l0.734,0.077l5.175,0.553l2.588,0.275l2.588,0.318l10.346,1.273l0.806,0.099l-0.157,0.755l-0.002,0.004
				c-0.085,0.314-0.161,0.637-0.263,0.935l-0.37,0.843l-0.442,0.77c-0.153,0.252-0.323,0.484-0.485,0.727
				c-0.156,0.244-0.338,0.466-0.513,0.692c-0.174,0.228-0.347,0.455-0.533,0.669c-0.362,0.438-0.739,0.862-1.124,1.275
				c-0.188,0.211-0.39,0.409-0.583,0.613c-0.196,0.203-0.391,0.404-0.593,0.6c-0.397,0.397-0.807,0.783-1.215,1.168
				c-0.823,0.761-1.664,1.501-2.531,2.207l0.011-0.076l0,0c1.291,1.883,2.483,3.834,3.554,5.869
				c0.262,0.512,0.522,1.026,0.762,1.555c0.125,0.261,0.24,0.525,0.35,0.796c0.107,0.272,0.234,0.533,0.327,0.816l0.293,0.836
				l0.237,0.871c0.066,0.298,0.107,0.613,0.159,0.921c0.036,0.317,0.021,0.66,0.026,0.994L123.313,98.699z M121.828,96.975
				c-0.018-0.236-0.021-0.476-0.049-0.72l-0.131-0.792l-0.189-0.801c-0.059-0.269-0.155-0.532-0.229-0.799
				c-0.076-0.267-0.162-0.533-0.257-0.797c-0.176-0.53-0.377-1.057-0.582-1.582c-0.838-2.095-1.819-4.15-2.902-6.148l0,0
				l-0.028-0.041l0.039-0.037c0.785-0.791,1.541-1.612,2.271-2.447c0.362-0.422,0.726-0.844,1.072-1.273
				c0.178-0.213,0.35-0.432,0.519-0.65c0.169-0.218,0.346-0.432,0.506-0.657c0.33-0.441,0.651-0.889,0.954-1.345
				c0.159-0.225,0.298-0.458,0.439-0.689c0.143-0.232,0.291-0.46,0.412-0.701c0.123-0.236,0.261-0.469,0.373-0.709l0.315-0.72
				l0.232-0.718c0.05-0.237,0.073-0.465,0.116-0.692l0.002-0.002l0.647,0.854l-10.299-1.268l-2.577-0.317l-2.582-0.274l-5.166-0.551
				l0.834-0.656l-3.2,23.105l-0.685-0.868l5.254,0.543l2.626,0.271l2.614,0.315L121.828,96.975z"/>
		</g>
	</g>
	<g>
		<g>
			<path fill="#FFFFFF" d="M4.34,97.783c6.974-1.03,20.931-2.393,20.931-2.393l-3.201-23.104c0,0-13.778,1.396-20.662,2.414
				c0.499,3.926,7.935,10.552,7.935,10.552S3.86,94.015,4.34,97.783z"/>
			<path fill="#D1D3D4" d="M5.052,96.926l9.649-1.169l2.614-0.314l2.626-0.271l5.254-0.543l-0.685,0.869l-3.2-23.106l0.836,0.657
				l-5.166,0.55l-2.585,0.276l-2.574,0.315L1.521,75.457l0.647-0.855v0.005c0.044,0.226,0.067,0.455,0.116,0.689l0.229,0.723
				l0.315,0.719c0.11,0.239,0.249,0.474,0.371,0.711c0.12,0.241,0.27,0.47,0.41,0.7c0.143,0.234,0.281,0.467,0.44,0.691
				c0.301,0.459,0.621,0.907,0.952,1.349c0.159,0.227,0.335,0.439,0.503,0.659c0.169,0.219,0.34,0.438,0.518,0.65
				c0.348,0.432,0.708,0.854,1.07,1.277c0.731,0.836,1.483,1.659,2.268,2.453l0.02,0.021l-0.013,0.018L9.366,85.27
				c-1.08,2.002-2.058,4.061-2.891,6.158c-0.204,0.525-0.402,1.053-0.579,1.585c-0.095,0.264-0.178,0.53-0.254,0.797
				c-0.074,0.267-0.17,0.532-0.227,0.799L5.228,95.41l-0.129,0.794C5.07,96.447,5.066,96.687,5.052,96.926z M3.58,97.881
				c0.007-0.336-0.007-0.678,0.03-0.996c0.053-0.308,0.093-0.622,0.161-0.92l0.238-0.872l0.295-0.836
				c0.093-0.279,0.22-0.542,0.329-0.813c0.108-0.27,0.225-0.535,0.352-0.795c0.238-0.529,0.502-1.04,0.766-1.553
				c1.073-2.033,2.27-3.98,3.563-5.858v-0.002l0.005,0.041c-0.869-0.705-1.709-1.443-2.535-2.201
				c-0.408-0.383-0.818-0.769-1.216-1.164c-0.203-0.196-0.398-0.396-0.595-0.599c-0.195-0.203-0.396-0.4-0.584-0.611
				c-0.385-0.414-0.762-0.836-1.126-1.272c-0.188-0.214-0.359-0.442-0.536-0.669c-0.174-0.227-0.355-0.449-0.512-0.693
				c-0.163-0.24-0.337-0.472-0.486-0.722l-0.444-0.771l-0.373-0.84c-0.103-0.298-0.179-0.619-0.264-0.936l-0.001-0.003L0.489,74.04
				l0.806-0.098l10.346-1.274l2.588-0.318l2.588-0.275l5.175-0.551l0.734-0.08l0.103,0.737l3.2,23.106l0.11,0.785l-0.794,0.08
				l-5.223,0.539l-2.614,0.271l-2.614,0.314L3.566,98.648L3.58,97.881z"/>
		</g>
	</g>
	<polygon fill="#BFBFBF" points="16.277,93.897 26.086,96.083 25.469,91.94 	"/>
	<polygon fill="#BFBFBF" points="110.419,93.974 100.61,96.156 101.229,92.017 	"/>
	<g>
		<g>
			<path fill="#FFFFFF" d="M109.754,93.088c-30.918-4.564-61.937-4.569-92.854,0c-0.979-7.694-1.956-15.39-2.934-23.083
				c32.865-4.858,65.855-4.862,98.722,0.002C111.708,77.699,110.732,85.395,109.754,93.088z"/>
			<path fill="#D1D3D4" d="M110.433,93.948l-12.33-1.592L86.546,91.29l-11.602-0.646L63.325,90.43l-11.616,0.215l-11.603,0.644
				l-11.571,1.068l-11.523,1.49l-0.786,0.102l-0.087-0.764l-2.601-23.126l-0.048-0.428l0.413-0.053l12.299-1.57l12.348-1.123
				l12.382-0.669l12.394-0.21l12.395,0.251l12.376,0.706l12.342,1.16l12.289,1.612l0.26,0.034l-0.029,0.27L110.433,93.948z
				 M109.106,92.231l3.308-22.261l0.232,0.307l-12.275-1.57L88.05,67.588l-12.354-0.667l-12.371-0.21l-12.368,0.25l-12.35,0.704
				l-12.315,1.159l-12.263,1.607l0.364-0.48l3.266,23.04l-0.872-0.662l11.579-1.495l11.627-1.075l11.659-0.647l11.673-0.215
				L75,89.114l11.66,0.646l11.639,1.076L109.106,92.231z"/>
		</g>
	</g>
	<g>
		<g>
			<g>
				<path fill="#79A2B7" d="M62.074,74.312c0.007,0.102,0.012,0.15,0.017,0.253c-0.005,0.095-0.008,0.142-0.015,0.237
					c-0.008,0.069-0.011,0.104-0.018,0.174c-0.019,0.046-0.029,0.065-0.048,0.111c-0.04,0.03-0.059,0.047-0.098,0.078
					c-0.073,0.02-0.108,0.029-0.18,0.049c-0.137,0-0.207,0-0.346,0c-0.196-0.022-0.294-0.035-0.491-0.059
					c-0.104-0.007-0.156-0.008-0.26-0.016c-0.427,0.004-0.64,0.004-1.066,0.009c-0.745,0.034-1.119,0.053-1.864,0.091
					c-0.294-0.013-0.444-0.018-0.738-0.032c-0.144,0.002-0.215,0.004-0.358,0.007c-0.064,0.021-0.098,0.031-0.163,0.052
					c-0.025,0.044-0.038,0.065-0.064,0.111c-0.003,0.089-0.007,0.132-0.01,0.223c-0.002,0.562-0.002,0.844-0.002,1.405
					c0.007,0.072,0.012,0.106,0.019,0.174c0.009,0.039,0.013,0.059,0.02,0.097c0.033,0.025,0.05,0.037,0.082,0.062
					c0.078,0.017,0.119,0.024,0.197,0.041c0.169-0.002,0.252-0.004,0.421-0.008c0.221-0.022,0.332-0.033,0.552-0.056
					c0.104-0.009,0.156-0.014,0.26-0.021c0.39,0.006,0.585,0.01,0.976,0.017c0.494-0.007,0.741-0.01,1.236-0.015
					c0.096-0.008,0.144-0.011,0.241-0.018c0.248-0.02,0.371-0.031,0.618-0.052c0.156,0,0.234-0.002,0.39-0.002
					c0.072,0.012,0.108,0.019,0.18,0.031c0.039,0.029,0.059,0.047,0.096,0.079c0.028,0.051,0.04,0.074,0.067,0.125
					c0.013,0.076,0.021,0.113,0.033,0.189c0.007,0.051,0.011,0.078,0.017,0.129c0.007,0.096,0.012,0.141,0.018,0.237
					c-0.013,0.188-0.019,0.282-0.03,0.472c0,0.098,0,0.145,0,0.239c0.007,0.146,0.01,0.217,0.017,0.362
					c-0.005,0.095-0.009,0.144-0.015,0.239c-0.006,0.1-0.009,0.15-0.014,0.252c-0.015,0.075-0.021,0.116-0.034,0.189
					c-0.019,0.052-0.027,0.076-0.047,0.127c-0.031,0.025-0.049,0.037-0.08,0.063c-0.078,0.02-0.115,0.029-0.193,0.049
					c-0.154,0.001-0.231,0.001-0.386,0.001c-0.239-0.03-0.357-0.044-0.597-0.074c-0.103-0.005-0.153-0.008-0.257-0.014
					c-0.387,0.017-0.581,0.024-0.967,0.041c-0.104,0.003-0.154,0.003-0.256,0.003c-0.696-0.001-1.045-0.003-1.741-0.001
					c-0.097,0.008-0.144,0.011-0.24,0.021c-0.09,0.015-0.135,0.021-0.225,0.034c-0.065,0.021-0.098,0.031-0.161,0.052
					c-0.024,0.039-0.036,0.06-0.062,0.099c0.002,0.081,0.003,0.122,0.005,0.204c0.002,0.361,0.002,0.54,0.003,0.9
					c0.004,0.103,0.004,0.153,0.006,0.254c-0.017,0.354-0.025,0.533-0.044,0.888c0.003,0.101,0.003,0.153,0.007,0.253
					c0.009,0.141,0.014,0.208,0.021,0.35c-0.003,0.1-0.005,0.149-0.01,0.252c-0.003,0.105-0.007,0.16-0.01,0.269
					c-0.006,0.076-0.008,0.113-0.011,0.19c-0.019,0.037-0.026,0.057-0.046,0.095c-0.037,0.021-0.058,0.03-0.095,0.05
					c-0.069,0.015-0.104,0.022-0.174,0.038c-0.107,0.013-0.161,0.021-0.269,0.037c-0.101,0.009-0.151,0.013-0.252,0.022
					c-0.234-0.002-0.355-0.002-0.589-0.002c-0.102,0.004-0.153,0.005-0.254,0.007c-0.259,0.026-0.39,0.042-0.649,0.069
					c-0.19-0.009-0.288-0.012-0.479-0.019c-0.069-0.01-0.105-0.015-0.174-0.024c-0.039-0.026-0.059-0.037-0.098-0.061
					c-0.013-0.044-0.021-0.068-0.035-0.11c-0.011-0.069-0.014-0.103-0.021-0.174c-0.031-0.334-0.046-0.502-0.077-0.837
					c-0.008-0.1-0.015-0.152-0.023-0.252c-0.019-0.334-0.026-0.503-0.046-0.838c0.003-0.101,0.005-0.153,0.008-0.254
					c0.015-0.336,0.021-0.502,0.036-0.838c0.003-0.101,0.005-0.154,0.007-0.254c-0.03-0.335-0.046-0.502-0.076-0.838
					c-0.003-0.1-0.003-0.15-0.006-0.252c-0.031-0.342-0.049-0.512-0.08-0.853c-0.004-0.1-0.006-0.149-0.009-0.252
					c0.001-0.336,0.003-0.505,0.005-0.84c-0.019-0.537-0.026-0.806-0.044-1.345c0.001-0.336,0.001-0.502,0.003-0.837
					c-0.018-0.538-0.028-0.809-0.046-1.346c0.002-0.335,0.005-0.503,0.007-0.838c0.003-0.077,0.006-0.114,0.01-0.19
					c0.012-0.044,0.018-0.066,0.029-0.111c0.039-0.021,0.059-0.03,0.098-0.052c0.065-0.013,0.098-0.022,0.164-0.037
					c0.144-0.003,0.218-0.007,0.364-0.011c0.251,0.011,0.378,0.016,0.628,0.028c0.106-0.003,0.158-0.005,0.264-0.007
					c0.391-0.03,0.585-0.045,0.975-0.074c0.106-0.002,0.158-0.002,0.264-0.006c0.383,0.011,0.574,0.016,0.959,0.025
					c0.106-0.001,0.159-0.003,0.264-0.007c0.39-0.024,0.587-0.038,0.976-0.063c0.105-0.007,0.157-0.011,0.262-0.019
					c0.392,0.012,0.586,0.021,0.977,0.035c0.105-0.003,0.159-0.003,0.265-0.005c0.391-0.022,0.585-0.036,0.975-0.057
					c0.104-0.002,0.159-0.002,0.264-0.003c0.166,0.007,0.249,0.011,0.414,0.016c0.106,0.005,0.159,0.008,0.266,0.014
					c0.111,0.012,0.168,0.017,0.279,0.028c0.073,0.007,0.108,0.01,0.182,0.017c0.04,0.019,0.061,0.029,0.1,0.048
					c0.027,0.037,0.04,0.055,0.066,0.096c0.007,0.066,0.01,0.104,0.018,0.172c0.006,0.058,0.011,0.086,0.018,0.144
					c0,0.095,0,0.142,0,0.237c-0.014,0.189-0.021,0.285-0.032,0.474c0,0.103,0,0.151,0,0.253
					C62.054,74.084,62.061,74.16,62.074,74.312z"/>
				<path fill="#79A2B7" d="M75.496,83.701c0.016,0.09,0.022,0.132,0.037,0.223c-0.049,0.067-0.07,0.102-0.118,0.168
					c-0.07,0.029-0.106,0.043-0.178,0.071c-0.083,0.009-0.125,0.015-0.209,0.024c-0.089-0.005-0.133-0.007-0.221-0.01
					c-0.146-0.021-0.22-0.031-0.364-0.049c-0.095-0.012-0.144-0.016-0.237-0.024c-0.287-0.013-0.429-0.02-0.713-0.031
					c-0.396,0.011-0.593,0.019-0.986,0.029c-0.081-0.033-0.123-0.054-0.205-0.088c-0.037-0.044-0.056-0.067-0.091-0.113
					c-0.031-0.071-0.044-0.107-0.075-0.178c-0.177-0.537-0.267-0.807-0.448-1.344c-0.043-0.063-0.064-0.096-0.106-0.161
					c-0.058-0.015-0.086-0.021-0.145-0.037c-0.075-0.007-0.114-0.013-0.19-0.021c-0.383-0.037-0.572-0.055-0.955-0.089
					c-0.104-0.004-0.154-0.006-0.258-0.007c-0.479-0.027-0.718-0.037-1.197-0.062c-0.383-0.014-0.576-0.021-0.959-0.034
					c-0.095-0.002-0.144-0.004-0.239-0.004c-0.096,0.004-0.145,0.006-0.239,0.01c-0.295-0.004-0.442-0.006-0.735-0.01
					c-0.083,0.01-0.126,0.016-0.208,0.028c-0.051,0.03-0.078,0.047-0.131,0.078c-0.039,0.073-0.057,0.112-0.098,0.188
					c-0.151,0.428-0.228,0.643-0.378,1.07c-0.04,0.102-0.062,0.151-0.1,0.251c-0.069,0.081-0.105,0.124-0.177,0.205
					c-0.095,0.03-0.143,0.045-0.238,0.076c-0.102,0-0.152-0.002-0.254-0.003c-0.369-0.021-0.554-0.031-0.921-0.051
					c-0.103,0-0.153-0.002-0.253-0.002c-0.395,0.021-0.592,0.035-0.985,0.061c-0.083,0.005-0.122,0.008-0.205,0.016
					c-0.076-0.039-0.115-0.058-0.191-0.097c-0.053-0.069-0.076-0.103-0.129-0.175c0.007-0.081,0.011-0.122,0.018-0.203
					c0.012-0.051,0.018-0.076,0.029-0.127c0.039-0.102,0.059-0.152,0.098-0.254c0.088-0.194,0.132-0.294,0.223-0.489
					c0.038-0.095,0.056-0.144,0.095-0.237c0.159-0.355,0.241-0.531,0.401-0.888c0.039-0.088,0.058-0.13,0.097-0.22
					c0.168-0.353,0.252-0.53,0.421-0.885c0.038-0.094,0.057-0.142,0.096-0.236c0.151-0.343,0.225-0.512,0.375-0.852
					c0.04-0.095,0.059-0.145,0.098-0.239c0.179-0.352,0.267-0.528,0.443-0.882c0.039-0.087,0.06-0.132,0.1-0.221
					c0.237-0.517,0.356-0.773,0.597-1.291c0.187-0.377,0.28-0.567,0.466-0.945c0.047-0.103,0.069-0.149,0.117-0.251
					c0.146-0.284,0.222-0.423,0.371-0.708c0.047-0.1,0.069-0.15,0.117-0.252c0.128-0.289,0.191-0.434,0.322-0.724
					c0.041-0.093,0.062-0.14,0.102-0.233c0.122-0.26,0.185-0.39,0.307-0.646c0.034-0.068,0.052-0.104,0.085-0.173
					c0.067-0.037,0.102-0.055,0.167-0.091c0.101-0.019,0.149-0.026,0.249-0.043c0.304-0.009,0.456-0.013,0.761-0.018
					c0.515,0.01,0.771,0.018,1.287,0.029c0.305,0.013,0.457,0.02,0.762,0.033c0.112,0.023,0.166,0.034,0.278,0.057
					c0.071,0.052,0.106,0.079,0.178,0.132c0.03,0.083,0.045,0.123,0.076,0.207c0.086,0.248,0.127,0.374,0.213,0.624
					c0.036,0.096,0.056,0.143,0.093,0.239c0.155,0.303,0.232,0.454,0.389,0.757c0.036,0.09,0.054,0.135,0.09,0.223
					c0.134,0.315,0.201,0.472,0.335,0.787c0.037,0.091,0.054,0.135,0.092,0.225c0.106,0.327,0.16,0.491,0.267,0.818
					c0.036,0.09,0.054,0.132,0.089,0.224c0.132,0.308,0.197,0.464,0.329,0.772c0.037,0.088,0.054,0.134,0.09,0.223
					c0.132,0.315,0.198,0.475,0.328,0.789c0.036,0.092,0.054,0.134,0.09,0.225c0.116,0.321,0.176,0.481,0.293,0.804
					c0.033,0.09,0.052,0.136,0.088,0.225c0.184,0.4,0.274,0.601,0.457,0.999c0.143,0.306,0.213,0.457,0.354,0.76
					c0.04,0.091,0.061,0.135,0.103,0.225c0.154,0.406,0.232,0.61,0.386,1.017C75.326,83.217,75.383,83.377,75.496,83.701z
					 M70.306,79.048c-0.024-0.083-0.036-0.124-0.059-0.207c-0.132-0.433-0.197-0.652-0.329-1.085
					c-0.028-0.096-0.044-0.145-0.074-0.241c-0.12-0.375-0.18-0.562-0.302-0.939c-0.03-0.083-0.047-0.124-0.078-0.209
					c-0.064-0.044-0.097-0.067-0.159-0.112c-0.084-0.021-0.127-0.031-0.211-0.054c-0.073,0.019-0.107,0.028-0.18,0.044
					c-0.068,0.062-0.101,0.096-0.169,0.156c-0.184,0.427-0.275,0.639-0.46,1.066c-0.041,0.094-0.061,0.142-0.102,0.236
					c-0.177,0.42-0.266,0.629-0.442,1.052c-0.02,0.095-0.03,0.14-0.052,0.235c0.018,0.076,0.027,0.113,0.046,0.189
					c0.069,0.032,0.105,0.049,0.176,0.083c0.091,0.014,0.136,0.022,0.226,0.036c0.406,0.008,0.608,0.013,1.016,0.021
					c0.304,0.027,0.454,0.038,0.758,0.066c0.084-0.023,0.128-0.036,0.213-0.061c0.053-0.049,0.08-0.071,0.132-0.121
					C70.275,79.143,70.286,79.11,70.306,79.048z"/>
				<path fill="#79A2B7" d="M87.793,84.933c-0.085,0.017-0.126,0.024-0.21,0.044c-0.442-0.041-0.666-0.059-1.109-0.098
					c-0.348-0.036-0.522-0.054-0.869-0.089c-0.102-0.009-0.153-0.01-0.254-0.021c-0.285-0.01-0.429-0.016-0.715-0.025
					c-0.081-0.007-0.123-0.01-0.206-0.017c-0.055-0.029-0.082-0.042-0.137-0.073c-0.047-0.054-0.071-0.083-0.117-0.137
					c-0.182-0.301-0.271-0.448-0.454-0.748c-0.052-0.08-0.076-0.12-0.127-0.2c-0.186-0.286-0.278-0.429-0.462-0.714
					c-0.052-0.08-0.078-0.121-0.13-0.202c-0.156-0.302-0.236-0.454-0.396-0.757c-0.053-0.079-0.078-0.12-0.13-0.2
					c-0.188-0.286-0.278-0.429-0.467-0.714c-0.04-0.054-0.062-0.08-0.104-0.135c-0.037-0.021-0.055-0.031-0.093-0.054
					c-0.076-0.011-0.115-0.017-0.193-0.029c-0.204-0.025-0.306-0.039-0.511-0.063c-0.083,0-0.125,0.001-0.21,0.001
					c-0.054,0.036-0.079,0.053-0.135,0.087c-0.022,0.081-0.037,0.122-0.061,0.203c-0.035,0.345-0.052,0.518-0.088,0.865
					c0,0.102,0,0.151,0,0.254c0.004,0.355,0.005,0.533,0.009,0.889c0,0.102,0,0.153,0,0.254c-0.004,0.151-0.007,0.229-0.009,0.379
					c-0.006,0.101-0.01,0.151-0.018,0.252c-0.013,0.101-0.018,0.15-0.031,0.252c-0.018,0.074-0.025,0.111-0.044,0.187
					c-0.034,0.03-0.052,0.045-0.085,0.074c-0.071,0.015-0.106,0.024-0.178,0.037c-0.102-0.007-0.15-0.011-0.253-0.018
					c-0.303-0.036-0.455-0.056-0.758-0.091c-0.291,0-0.439,0-0.732,0.003c-0.101-0.006-0.151-0.01-0.254-0.015
					c-0.291-0.035-0.436-0.051-0.726-0.086c-0.076-0.016-0.114-0.024-0.19-0.041c-0.035-0.027-0.056-0.041-0.091-0.068
					c-0.01-0.063-0.015-0.096-0.022-0.16c-0.003-0.089-0.003-0.134-0.005-0.222c-0.002-0.095-0.002-0.144-0.004-0.238
					c0.022-0.162,0.032-0.247,0.053-0.409c0.013-0.102,0.02-0.15,0.03-0.251c0.043-0.34,0.063-0.511,0.107-0.852
					c0.005-0.101,0.008-0.15,0.014-0.252c-0.002-0.343-0.002-0.514-0.004-0.855c-0.002-0.1-0.002-0.151-0.002-0.252
					c0.011-0.337,0.016-0.505,0.025-0.839c0.006-0.102,0.009-0.152,0.014-0.252c0.038-0.342,0.056-0.512,0.093-0.853
					c0.007-0.099,0.009-0.149,0.014-0.252c-0.002-0.342-0.003-0.513-0.005-0.856c0.005-0.1,0.009-0.15,0.016-0.251
					c0.038-0.342,0.054-0.511,0.093-0.852c0.005-0.102,0.009-0.152,0.014-0.252c0.03-0.335,0.044-0.501,0.074-0.835
					c0.005-0.103,0.009-0.154,0.014-0.257c0.013-0.34,0.018-0.511,0.029-0.853c0.005-0.102,0.008-0.151,0.013-0.251
					c-0.001-0.21-0.003-0.314-0.005-0.523c0.012-0.095,0.018-0.142,0.029-0.235c0.009-0.039,0.013-0.058,0.021-0.095
					c0.024-0.081,0.036-0.122,0.06-0.203c0.043-0.048,0.061-0.073,0.104-0.122c0.08-0.014,0.121-0.02,0.2-0.035
					c0.054-0.004,0.081-0.006,0.134-0.009c0.101-0.002,0.149-0.002,0.247-0.002c0.299,0.029,0.445,0.042,0.742,0.073
					c0.784,0.068,1.177,0.107,1.961,0.181c0.45,0.005,0.676,0.007,1.126,0.013c0.105,0.007,0.158,0.012,0.265,0.019
					c0.434,0.056,0.648,0.081,1.082,0.14c0.25,0.018,0.377,0.027,0.628,0.045c0.112,0.015,0.166,0.023,0.277,0.037
					c0.099,0.027,0.15,0.041,0.246,0.065c0.136,0.05,0.202,0.073,0.337,0.122c0.097,0.04,0.146,0.061,0.242,0.099
					c0.097,0.046,0.144,0.069,0.239,0.115c0.103,0.046,0.153,0.069,0.256,0.115c0.096,0.053,0.144,0.078,0.238,0.13
					c0.082,0.059,0.122,0.085,0.204,0.143c0.117,0.094,0.177,0.139,0.296,0.232c0.067,0.062,0.1,0.094,0.168,0.157
					c0.06,0.067,0.091,0.101,0.149,0.171c0.061,0.081,0.091,0.122,0.148,0.203c0.081,0.134,0.121,0.2,0.203,0.334
					c0.052,0.088,0.078,0.132,0.13,0.218c0.068,0.127,0.102,0.19,0.169,0.317c0.039,0.091,0.058,0.139,0.097,0.229
					c0.037,0.099,0.057,0.148,0.094,0.246c0.023,0.104,0.035,0.157,0.059,0.261c0.012,0.104,0.018,0.152,0.027,0.256
					c-0.003,0.102-0.003,0.152-0.006,0.254c0.001,0.141,0.001,0.21,0.001,0.349c-0.009,0.102-0.012,0.152-0.021,0.253
					c-0.015,0.1-0.023,0.15-0.039,0.25c-0.021,0.106-0.034,0.159-0.058,0.267c-0.028,0.104-0.044,0.157-0.071,0.264
					c-0.035,0.099-0.052,0.147-0.088,0.245c-0.045,0.092-0.071,0.137-0.117,0.229c-0.054,0.09-0.081,0.135-0.135,0.225
					c-0.066,0.09-0.101,0.134-0.166,0.224c-0.064,0.077-0.096,0.117-0.161,0.193c-0.064,0.069-0.096,0.106-0.162,0.176
					c-0.065,0.064-0.097,0.097-0.161,0.16c-0.111,0.092-0.166,0.141-0.277,0.231c-0.076,0.051-0.113,0.078-0.189,0.129
					c-0.134,0.057-0.202,0.086-0.336,0.146c-0.081,0.036-0.122,0.058-0.203,0.095c-0.086,0.036-0.13,0.056-0.218,0.093
					c-0.085,0.012-0.127,0.02-0.212,0.032c-0.054,0.014-0.08,0.021-0.135,0.034c0.022,0.055,0.032,0.08,0.055,0.132
					c0.207,0.341,0.309,0.512,0.513,0.85c0.051,0.081,0.077,0.122,0.127,0.203c0.205,0.327,0.31,0.492,0.512,0.82
					c0.058,0.081,0.087,0.122,0.145,0.203c0.203,0.334,0.303,0.501,0.504,0.837c0.058,0.081,0.087,0.122,0.144,0.203
					c0.179,0.244,0.267,0.367,0.442,0.611c0.051,0.074,0.076,0.111,0.127,0.186c0.026,0.073,0.037,0.107,0.064,0.18
					C87.84,84.852,87.823,84.879,87.793,84.933z M83.8,78.43c0.085-0.024,0.127-0.037,0.213-0.062
					c0.081-0.039,0.124-0.058,0.203-0.097c0.071-0.071,0.108-0.104,0.178-0.176c0.053-0.092,0.08-0.138,0.132-0.229
					c0.034-0.1,0.049-0.146,0.083-0.247c0.015-0.1,0.022-0.15,0.036-0.251c0.001-0.107,0.003-0.162,0.005-0.271
					c-0.005-0.108-0.008-0.16-0.014-0.27c-0.019-0.098-0.027-0.145-0.045-0.241c-0.039-0.099-0.059-0.147-0.098-0.246
					c-0.052-0.082-0.081-0.121-0.134-0.199c-0.066-0.063-0.1-0.096-0.167-0.156c-0.088-0.044-0.132-0.068-0.222-0.112
					c-0.142-0.042-0.212-0.062-0.354-0.104c-0.103-0.021-0.156-0.03-0.259-0.051c-0.327-0.03-0.489-0.045-0.816-0.072
					c-0.104-0.01-0.158-0.012-0.263-0.02c-0.333-0.003-0.501-0.005-0.834-0.007c-0.08,0-0.119,0-0.199,0.002
					c-0.047,0.015-0.071,0.025-0.116,0.04c-0.043,0.036-0.062,0.053-0.104,0.088c-0.012,0.07-0.018,0.104-0.029,0.174
					c-0.002,0.146-0.004,0.219-0.007,0.363c0.007,0.103,0.01,0.154,0.017,0.254c0.007,0.109,0.01,0.163,0.018,0.271
					c0,0.107-0.002,0.163-0.002,0.27c-0.035,0.347-0.055,0.52-0.089,0.865c0.002,0.071,0.004,0.105,0.006,0.176
					c0.012,0.037,0.016,0.058,0.026,0.099c0.044,0.02,0.065,0.03,0.109,0.053c0.078,0.019,0.117,0.025,0.194,0.044
					c0.336,0.047,0.502,0.072,0.837,0.12c0.103,0.006,0.155,0.01,0.259,0.019c0.43,0.004,0.645,0.006,1.074,0.012
					C83.582,78.453,83.653,78.444,83.8,78.43z"/>
				<path fill="#79A2B7" d="M102.126,85.211c-0.006,0.099-0.011,0.151-0.019,0.254c-0.002,0.195-0.005,0.294-0.007,0.492
					c-0.007,0.095-0.01,0.141-0.017,0.236c-0.015,0.051-0.02,0.077-0.032,0.124c-0.018,0.07-0.026,0.103-0.042,0.17
					c-0.038,0.048-0.059,0.067-0.097,0.113c-0.042,0.025-0.062,0.039-0.104,0.066c-0.073,0.003-0.11,0.003-0.182,0.007
					c-0.095-0.007-0.143-0.012-0.236-0.02c-0.103-0.013-0.151-0.021-0.253-0.035c-0.249-0.053-0.374-0.08-0.623-0.134
					c-0.107-0.02-0.161-0.03-0.267-0.051c-0.156-0.022-0.236-0.032-0.394-0.053c-0.114-0.022-0.17-0.034-0.283-0.054
					c-0.229-0.064-0.344-0.095-0.574-0.156c-0.042-0.021-0.062-0.026-0.104-0.045c-0.022-0.036-0.032-0.054-0.055-0.088
					c0.001-0.063,0.006-0.096,0.007-0.158c0.006-0.09,0.007-0.133,0.012-0.222c0.005-0.096,0.01-0.143,0.016-0.239
					c0.04-0.209,0.061-0.316,0.102-0.528c0.075-0.589,0.114-0.884,0.19-1.474c0.034-0.397,0.051-0.597,0.082-0.995
					c0.014-0.1,0.021-0.15,0.034-0.251c0.076-0.386,0.113-0.579,0.189-0.965c0.064-0.488,0.097-0.735,0.16-1.223
					c-0.003-0.078-0.007-0.115-0.008-0.193c-0.036-0.028-0.054-0.044-0.09-0.074c-0.039-0.005-0.058-0.007-0.096-0.014
					c-0.053,0.051-0.08,0.078-0.133,0.129c-0.076,0.078-0.111,0.119-0.188,0.197c-0.309,0.267-0.463,0.4-0.773,0.666
					c-0.448,0.41-0.674,0.615-1.121,1.024c-0.295,0.283-0.441,0.425-0.734,0.708c-0.064,0.045-0.098,0.066-0.161,0.108
					c-0.047,0.013-0.069,0.021-0.117,0.034c-0.051-0.005-0.076-0.01-0.129-0.016c-0.067-0.021-0.102-0.03-0.171-0.053
					c-0.074-0.029-0.111-0.042-0.187-0.068c-0.063-0.059-0.096-0.088-0.162-0.146c-0.274-0.416-0.414-0.623-0.69-1.036
					c-0.202-0.336-0.304-0.503-0.508-0.838c-0.055-0.083-0.084-0.124-0.14-0.205c-0.295-0.403-0.442-0.605-0.738-1.007
					c-0.076-0.091-0.114-0.135-0.188-0.227c-0.041,0.01-0.062,0.012-0.103,0.02c-0.02,0.068-0.028,0.104-0.051,0.173
					c-0.061,0.394-0.093,0.59-0.154,0.985c-0.012,0.1-0.015,0.15-0.024,0.25c-0.018,0.398-0.027,0.6-0.044,0.998
					c-0.011,0.101-0.017,0.151-0.027,0.252c-0.029,0.397-0.044,0.598-0.075,0.994c-0.01,0.102-0.015,0.152-0.024,0.254
					c-0.05,0.389-0.073,0.583-0.122,0.972c-0.011,0.095-0.016,0.142-0.025,0.235c-0.014,0.189-0.021,0.285-0.034,0.474
					c-0.017,0.101-0.027,0.151-0.044,0.25c-0.017,0.106-0.026,0.158-0.044,0.266c-0.021,0.081-0.031,0.121-0.053,0.202
					c-0.029,0.033-0.046,0.052-0.074,0.088c-0.046,0.007-0.068,0.01-0.114,0.019c-0.166,0.001-0.251,0.001-0.416,0.004
					c-0.102-0.004-0.155-0.006-0.256-0.011c-0.244-0.044-0.366-0.066-0.61-0.111c-0.101-0.003-0.153-0.006-0.255-0.01
					c-0.307-0.005-0.459-0.006-0.766-0.013c-0.146-0.015-0.217-0.021-0.362-0.034c-0.075-0.02-0.114-0.031-0.188-0.051
					c-0.033-0.04-0.052-0.062-0.086-0.102c-0.009-0.048-0.014-0.069-0.021-0.115c-0.006-0.062-0.009-0.095-0.014-0.159
					c0.014-0.146,0.019-0.218,0.033-0.364c0.03-0.193,0.046-0.289,0.078-0.482c0.093-0.97,0.139-1.456,0.232-2.427
					c0.018-0.335,0.029-0.503,0.047-0.839c0.01-0.1,0.015-0.15,0.026-0.25c0.036-0.334,0.055-0.502,0.094-0.832
					c0.004-0.103,0.004-0.153,0.007-0.255c0.014-0.342,0.02-0.514,0.032-0.856c0.01-0.1,0.017-0.149,0.025-0.252
					c0.053-0.332,0.078-0.498,0.128-0.83c0.018-0.1,0.024-0.148,0.039-0.25c0.008-0.336,0.012-0.503,0.017-0.84
					c0.017-0.102,0.024-0.15,0.042-0.251c0.057-0.331,0.085-0.497,0.144-0.828c0.008-0.099,0.016-0.151,0.024-0.252
					c-0.004-0.235-0.005-0.354-0.009-0.589c0.009-0.102,0.014-0.151,0.023-0.252c0.021-0.08,0.032-0.121,0.052-0.202
					c0.031-0.042,0.047-0.063,0.076-0.104c0.043-0.027,0.065-0.041,0.107-0.068c0.054-0.008,0.08-0.012,0.134-0.02
					c0.086,0.002,0.13,0.004,0.217,0.006c0.112,0.024,0.164,0.035,0.276,0.06c0.14,0.046,0.213,0.067,0.355,0.112
					c0.104,0.011,0.157,0.018,0.263,0.028c0.205,0.001,0.308,0.001,0.514,0.003c0.114,0,0.17,0,0.283-0.002
					c0.1,0.006,0.149,0.008,0.249,0.01c0.249,0.033,0.373,0.05,0.622,0.082c0.086,0.009,0.13,0.014,0.215,0.021
					c0.069,0.041,0.105,0.061,0.172,0.1c0.061,0.077,0.089,0.114,0.148,0.188c0.203,0.272,0.303,0.407,0.506,0.678
					c0.057,0.091,0.085,0.134,0.143,0.223c0.161,0.278,0.241,0.42,0.4,0.698c0.057,0.089,0.085,0.133,0.144,0.223
					c0.188,0.27,0.281,0.405,0.467,0.674c0.054,0.096,0.083,0.143,0.137,0.24c0.176,0.27,0.262,0.403,0.435,0.672
					c0.057,0.077,0.084,0.112,0.142,0.19c0.055,0.037,0.083,0.057,0.138,0.097c0.063,0.008,0.097,0.011,0.16,0.02
					c0.063-0.025,0.096-0.038,0.156-0.062c0.066-0.056,0.101-0.083,0.166-0.139c0.226-0.227,0.337-0.342,0.563-0.569
					c0.077-0.081,0.114-0.12,0.189-0.199c0.239-0.22,0.358-0.329,0.597-0.547c0.076-0.075,0.114-0.111,0.189-0.185
					c0.26-0.218,0.39-0.325,0.648-0.543c0.077-0.071,0.114-0.107,0.19-0.181c0.195-0.179,0.295-0.269,0.49-0.449
					c0.062-0.06,0.092-0.093,0.154-0.155c0.06-0.043,0.09-0.064,0.147-0.108c0.071-0.022,0.105-0.034,0.175-0.056
					c0.085,0.019,0.127,0.025,0.211,0.043c0.346,0.063,0.52,0.098,0.864,0.164c0.307,0.047,0.461,0.07,0.767,0.119
					c0.105,0.015,0.158,0.022,0.264,0.037c0.199,0.015,0.299,0.021,0.497,0.036c0.111,0.022,0.166,0.032,0.275,0.056
					c0.078,0.024,0.117,0.034,0.193,0.058c0.044,0.019,0.066,0.028,0.11,0.048c0.036,0.037,0.053,0.054,0.088,0.091
					c0.006,0.054,0.009,0.078,0.014,0.132c-0.017,0.073-0.024,0.11-0.044,0.186c-0.066,0.279-0.098,0.417-0.164,0.694
					c-0.02,0.1-0.031,0.15-0.053,0.249c-0.033,0.334-0.049,0.501-0.084,0.835c-0.015,0.1-0.021,0.151-0.036,0.252
					c-0.052,0.33-0.079,0.495-0.134,0.827c-0.014,0.101-0.021,0.15-0.033,0.25c-0.043,0.334-0.063,0.5-0.104,0.831
					c-0.013,0.102-0.021,0.153-0.034,0.253c-0.024,0.342-0.034,0.513-0.057,0.854c-0.015,0.102-0.021,0.15-0.036,0.251
					c-0.072,0.327-0.109,0.491-0.183,0.821c-0.013,0.1-0.021,0.15-0.035,0.25c-0.027,0.334-0.043,0.502-0.07,0.839
					c-0.015,0.098-0.021,0.148-0.037,0.248c-0.07,0.329-0.107,0.493-0.179,0.821c-0.016,0.101-0.021,0.15-0.038,0.25
					C102.216,84.715,102.187,84.879,102.126,85.211z"/>
			</g>
			<g>
				<path fill="#172A53" d="M29.281,81.6c-0.028-0.103-0.044-0.154-0.072-0.258c-0.064-0.115-0.096-0.169-0.158-0.284
					c-0.052-0.091-0.079-0.139-0.132-0.23c-0.146-0.177-0.221-0.268-0.367-0.443c-0.056-0.051-0.083-0.076-0.139-0.127
					c-0.057-0.042-0.083-0.063-0.14-0.104c-0.047-0.054-0.073-0.076-0.12-0.127c-0.056-0.052-0.085-0.076-0.14-0.128
					c-0.049-0.051-0.073-0.075-0.122-0.127c-0.056-0.049-0.085-0.073-0.141-0.125c-0.057-0.043-0.083-0.062-0.14-0.104
					c-0.062-0.041-0.095-0.062-0.157-0.104c-0.056-0.042-0.085-0.062-0.141-0.103c-0.113-0.101-0.169-0.151-0.283-0.251
					c-0.047-0.044-0.071-0.064-0.118-0.108c-0.065-0.056-0.1-0.084-0.166-0.14c-0.044-0.028-0.067-0.041-0.111-0.068
					c-0.066-0.049-0.099-0.071-0.162-0.12c-0.171-0.148-0.258-0.227-0.431-0.376c-0.067-0.063-0.1-0.095-0.168-0.16
					c-0.205-0.22-0.308-0.328-0.515-0.546c-0.062-0.082-0.091-0.124-0.154-0.205c-0.042-0.068-0.062-0.102-0.104-0.168
					c-0.034-0.061-0.053-0.091-0.084-0.152c-0.036-0.069-0.052-0.103-0.087-0.173c-0.066-0.122-0.101-0.183-0.168-0.305
					c-0.025-0.069-0.038-0.105-0.064-0.174c-0.018-0.063-0.025-0.093-0.042-0.156c-0.01-0.073-0.015-0.108-0.025-0.181
					c-0.019-0.08-0.028-0.119-0.048-0.198c-0.014-0.105-0.02-0.158-0.034-0.263c-0.005-0.097-0.007-0.144-0.012-0.242
					c-0.001-0.081-0.001-0.122-0.003-0.203c-0.002-0.073-0.002-0.108-0.003-0.184c0.013-0.148,0.021-0.223,0.035-0.371
					c0.023-0.076,0.036-0.115,0.059-0.19c0.017-0.076,0.024-0.115,0.041-0.19c0.025-0.066,0.037-0.103,0.063-0.171
					c0.031-0.078,0.049-0.116,0.081-0.194c0.033-0.062,0.051-0.092,0.086-0.152c0.043-0.071,0.064-0.108,0.106-0.18
					c0.042-0.062,0.064-0.094,0.108-0.156c0.097-0.117,0.143-0.178,0.241-0.295c0.052-0.057,0.079-0.084,0.132-0.14
					c0.062-0.049,0.093-0.075,0.156-0.124c0.127-0.081,0.19-0.122,0.317-0.201c0.071-0.043,0.108-0.062,0.182-0.104
					c0.192-0.1,0.29-0.148,0.482-0.244c0.092-0.036,0.138-0.054,0.228-0.09c0.148-0.052,0.223-0.076,0.372-0.126
					c0.17-0.021,0.254-0.033,0.425-0.054c0.134-0.023,0.2-0.034,0.334-0.06c0.084-0.01,0.128-0.016,0.213-0.025
					c0.112-0.005,0.168-0.007,0.28-0.012c0.093-0.003,0.138-0.005,0.233-0.009c0.173,0.014,0.259,0.021,0.434,0.032
					c0.079,0.016,0.118,0.022,0.198,0.039c0.071,0.024,0.105,0.034,0.177,0.06c0.08,0.024,0.121,0.035,0.2,0.059
					c0.19,0.085,0.286,0.13,0.476,0.214c0.073,0.041,0.108,0.058,0.182,0.099c0.065,0.042,0.099,0.063,0.163,0.104
					c0.047,0.045,0.07,0.064,0.118,0.108c0.058,0.051,0.085,0.078,0.143,0.129c0.057,0.058,0.086,0.088,0.146,0.146
					c0.067,0.073,0.1,0.11,0.168,0.184c0.061,0.083,0.091,0.124,0.149,0.208c0.034,0.068,0.051,0.105,0.084,0.173
					c0.025,0.071,0.037,0.107,0.061,0.177c0.019,0.08,0.027,0.119,0.044,0.199c0.027,0.096,0.041,0.145,0.067,0.239
					c0.027,0.248,0.041,0.37,0.068,0.621c0,0.073,0,0.11,0,0.183c-0.01,0.074-0.015,0.112-0.024,0.185
					c-0.026,0.07-0.039,0.103-0.065,0.17c-0.054,0.047-0.081,0.071-0.135,0.117c-0.065,0.04-0.098,0.061-0.159,0.099
					c-0.075,0.017-0.112,0.026-0.188,0.043c-0.065,0.014-0.1,0.022-0.166,0.037c-0.076-0.006-0.115-0.012-0.19-0.02
					c-0.073-0.032-0.108-0.049-0.18-0.082c-0.067-0.072-0.102-0.11-0.17-0.183c-0.034-0.085-0.051-0.131-0.086-0.215
					c-0.017-0.08-0.024-0.121-0.044-0.199c-0.017-0.151-0.025-0.229-0.044-0.382c-0.017-0.07-0.025-0.107-0.043-0.18
					c-0.032-0.061-0.047-0.092-0.079-0.152c-0.034-0.07-0.051-0.105-0.085-0.173c-0.04-0.062-0.061-0.091-0.103-0.152
					c-0.05-0.059-0.073-0.088-0.122-0.146c-0.058-0.052-0.085-0.076-0.143-0.128c-0.064-0.042-0.098-0.062-0.163-0.104
					c-0.063-0.033-0.094-0.051-0.159-0.084c-0.07-0.033-0.107-0.048-0.179-0.08c-0.072-0.017-0.104-0.023-0.176-0.041
					c-0.078-0.015-0.119-0.022-0.197-0.038c-0.069,0-0.103,0-0.173,0c-0.238,0.003-0.357,0.007-0.597,0.011
					c-0.077,0.01-0.114,0.013-0.19,0.021c-0.085,0.02-0.125,0.027-0.208,0.045c-0.147,0.068-0.22,0.102-0.366,0.168
					c-0.125,0.098-0.188,0.146-0.311,0.242c-0.056,0.057-0.082,0.085-0.135,0.141c-0.053,0.062-0.077,0.095-0.131,0.157
					c-0.033,0.063-0.052,0.093-0.086,0.154c-0.034,0.078-0.051,0.117-0.083,0.192c-0.017,0.068-0.025,0.103-0.042,0.171
					c-0.026,0.075-0.038,0.112-0.062,0.188c-0.016,0.075-0.024,0.114-0.039,0.19c-0.007,0.081-0.011,0.123-0.018,0.207
					c0.002,0.071,0,0.108,0.002,0.182c0.02,0.151,0.029,0.228,0.047,0.38c0.02,0.071,0.027,0.108,0.044,0.18
					c0.027,0.068,0.039,0.104,0.065,0.175c0.025,0.062,0.039,0.093,0.064,0.154c0.042,0.066,0.062,0.103,0.104,0.17
					c0.034,0.062,0.051,0.094,0.083,0.155c0.051,0.065,0.076,0.098,0.127,0.166c0.062,0.089,0.093,0.135,0.156,0.225
					c0.061,0.081,0.091,0.124,0.152,0.205c0.1,0.118,0.148,0.176,0.247,0.294c0.229,0.2,0.342,0.302,0.568,0.501
					c0.048,0.053,0.073,0.077,0.12,0.129c0.188,0.139,0.28,0.21,0.464,0.352c0.228,0.201,0.34,0.301,0.564,0.503
					c0.12,0.091,0.18,0.139,0.3,0.229c0.049,0.051,0.071,0.076,0.12,0.129c0.104,0.102,0.156,0.152,0.261,0.254
					c0.057,0.051,0.083,0.076,0.14,0.127c0.057,0.06,0.086,0.087,0.142,0.144c0.047,0.053,0.073,0.08,0.12,0.131
					c0.041,0.062,0.062,0.091,0.103,0.151c0.049,0.06,0.072,0.089,0.119,0.148c0.081,0.121,0.122,0.184,0.203,0.304
					c0.041,0.069,0.06,0.103,0.103,0.171c0.039,0.061,0.061,0.091,0.101,0.152c0.033,0.068,0.048,0.103,0.082,0.173
					c0.032,0.061,0.047,0.093,0.079,0.153c0.024,0.071,0.036,0.105,0.062,0.177c0.017,0.071,0.025,0.106,0.043,0.178
					c0.022,0.071,0.034,0.106,0.059,0.176c0.017,0.071,0.025,0.106,0.042,0.181c0,0.08,0,0.121,0.002,0.201c0,0.146,0,0.222,0,0.366
					c-0.017,0.149-0.025,0.225-0.041,0.371c0,0.073,0,0.11,0,0.186c0,0.063-0.003,0.096-0.003,0.161
					c-0.009,0.076-0.012,0.11-0.02,0.186c-0.017,0.074-0.024,0.113-0.041,0.188c-0.025,0.067-0.037,0.102-0.063,0.17
					c-0.023,0.076-0.037,0.115-0.061,0.191c-0.078,0.188-0.117,0.282-0.193,0.469c-0.04,0.078-0.061,0.117-0.102,0.194
					c-0.043,0.063-0.062,0.093-0.104,0.154c-0.051,0.065-0.075,0.095-0.124,0.158c-0.037,0.037-0.058,0.054-0.095,0.091
					c-0.06,0.064-0.086,0.098-0.145,0.161c-0.035,0.046-0.054,0.067-0.089,0.112c-0.117,0.11-0.178,0.169-0.295,0.281
					c-0.122,0.079-0.183,0.117-0.305,0.197c-0.06,0.049-0.091,0.073-0.149,0.12c-0.076,0.041-0.115,0.062-0.193,0.104
					c-0.061,0.031-0.093,0.047-0.153,0.078c-0.057,0.024-0.081,0.034-0.136,0.059c-0.069,0.032-0.104,0.051-0.175,0.083
					c-0.078,0.024-0.118,0.038-0.196,0.065c-0.072,0.017-0.106,0.024-0.178,0.041c-0.054,0.023-0.083,0.035-0.137,0.06
					c-0.239,0.052-0.357,0.081-0.599,0.135c-0.199,0.025-0.301,0.039-0.503,0.065c-0.222,0.004-0.332,0.008-0.552,0.011
					c-0.056,0.007-0.084,0.011-0.14,0.019c-0.083-0.005-0.126-0.008-0.21-0.014c-0.114-0.008-0.174-0.015-0.288-0.023
					c-0.179-0.033-0.265-0.049-0.442-0.082c-0.068-0.024-0.104-0.034-0.173-0.059c-0.062-0.034-0.091-0.049-0.154-0.081
					c-0.088-0.037-0.132-0.056-0.218-0.093c-0.144-0.078-0.214-0.117-0.356-0.195c-0.146-0.111-0.222-0.166-0.369-0.277
					c-0.056-0.05-0.083-0.074-0.141-0.123c-0.096-0.101-0.144-0.149-0.24-0.252c-0.049-0.057-0.075-0.088-0.124-0.146
					c-0.049-0.049-0.071-0.075-0.12-0.124c-0.069-0.137-0.104-0.208-0.174-0.344c-0.026-0.071-0.039-0.106-0.065-0.177
					c-0.039-0.093-0.057-0.138-0.094-0.231c-0.039-0.101-0.06-0.15-0.1-0.25c-0.026-0.07-0.039-0.104-0.065-0.175
					c-0.018-0.071-0.029-0.106-0.047-0.178c-0.022-0.15-0.032-0.227-0.054-0.38c-0.002-0.065-0.002-0.096-0.002-0.162
					c-0.021-0.144-0.03-0.215-0.052-0.36c-0.001-0.073-0.003-0.11-0.005-0.184c0.02-0.223,0.027-0.335,0.046-0.559
					c0.013-0.1,0.016-0.149,0.027-0.25c0.01-0.105,0.013-0.159,0.024-0.269c0.015-0.074,0.021-0.11,0.037-0.188
					c0.056-0.08,0.083-0.122,0.139-0.202c0.107-0.064,0.164-0.097,0.271-0.161c0.122-0.02,0.184-0.025,0.308-0.042
					c0.11,0.008,0.166,0.013,0.276,0.021c0.07,0.041,0.107,0.06,0.181,0.099c0.051,0.067,0.076,0.1,0.127,0.166
					c0.014,0.097,0.019,0.146,0.032,0.24c0.002,0.082,0.004,0.123,0.007,0.203c-0.007,0.074-0.01,0.111-0.015,0.187
					c-0.017,0.076-0.024,0.112-0.038,0.188c0.002,0.072,0.004,0.109,0.006,0.183c-0.007,0.074-0.013,0.112-0.02,0.186
					c0.03,0.226,0.047,0.337,0.078,0.562c0.054,0.212,0.081,0.317,0.135,0.532c0.026,0.068,0.039,0.103,0.065,0.174
					c0.104,0.207,0.155,0.312,0.257,0.518c0.049,0.059,0.074,0.088,0.124,0.146c0.058,0.064,0.088,0.096,0.146,0.162
					c0.03,0.038,0.046,0.056,0.076,0.092c0.064,0.059,0.099,0.085,0.163,0.143c0.056,0.041,0.08,0.061,0.137,0.104
					c0.062,0.04,0.095,0.061,0.158,0.102c0.07,0.031,0.104,0.047,0.174,0.08c0.062,0.031,0.095,0.047,0.157,0.08
					c0.069,0.03,0.105,0.049,0.175,0.078c0.078,0.024,0.115,0.034,0.192,0.059c0.068,0.015,0.103,0.021,0.17,0.037
					c0.083,0.007,0.125,0.008,0.209,0.013c0.071,0,0.11-0.002,0.184-0.003c0.098-0.012,0.146-0.018,0.244-0.031
					c0.225-0.044,0.335-0.066,0.56-0.111c0.096-0.021,0.145-0.031,0.241-0.051c0.069-0.034,0.105-0.051,0.174-0.083
					c0.124-0.065,0.188-0.097,0.311-0.161c0.061-0.04,0.091-0.061,0.153-0.102c0.059-0.047,0.089-0.071,0.147-0.118
					c0.056-0.082,0.085-0.119,0.144-0.2c0.062-0.081,0.095-0.122,0.158-0.203c0.04-0.07,0.062-0.104,0.104-0.176
					c0.039-0.087,0.058-0.129,0.097-0.215c0.039-0.094,0.06-0.143,0.097-0.236c0.023-0.084,0.033-0.125,0.056-0.21
					c0.022-0.101,0.032-0.15,0.054-0.25c0.02-0.126,0.027-0.188,0.046-0.312c0.003-0.106,0.005-0.16,0.011-0.267
					c-0.002-0.081-0.004-0.122-0.006-0.203c-0.02-0.103-0.029-0.155-0.051-0.259c-0.018-0.096-0.027-0.143-0.049-0.238
					C29.32,81.717,29.307,81.677,29.281,81.6z"/>
				<path fill="#172A53" d="M37.606,80.673c0.009,0.09,0.014,0.134,0.021,0.222c-0.018,0.075-0.027,0.112-0.045,0.187
					c-0.056,0.134-0.082,0.204-0.137,0.338c-0.062,0.128-0.093,0.191-0.155,0.318c-0.035,0.075-0.05,0.114-0.086,0.19
					c-0.026,0.068-0.041,0.101-0.068,0.168c-0.042,0.076-0.062,0.117-0.106,0.193c-0.019,0.051-0.028,0.076-0.05,0.127
					c-0.034,0.074-0.052,0.113-0.086,0.189c-0.034,0.067-0.051,0.102-0.086,0.17c-0.036,0.061-0.053,0.091-0.09,0.152
					c-0.042,0.069-0.064,0.104-0.107,0.172c-0.035,0.06-0.052,0.089-0.088,0.149c-0.069,0.138-0.104,0.205-0.174,0.343
					c-0.131,0.183-0.195,0.273-0.324,0.457c-0.088,0.114-0.132,0.17-0.22,0.284c-0.051,0.062-0.076,0.095-0.128,0.156
					c-0.043,0.06-0.065,0.091-0.107,0.152c-0.053,0.054-0.078,0.081-0.13,0.135c-0.165,0.154-0.248,0.231-0.412,0.385
					c-0.052,0.046-0.076,0.069-0.13,0.115c-0.068,0.039-0.105,0.06-0.175,0.099c-0.069,0.031-0.105,0.047-0.174,0.078
					c-0.063,0.022-0.098,0.034-0.159,0.059c-0.143,0.048-0.214,0.07-0.354,0.117c-0.139,0.015-0.207,0.021-0.344,0.035
					c-0.09,0.002-0.135,0.002-0.226,0.004c-0.065-0.018-0.102-0.027-0.168-0.045c-0.075-0.015-0.112-0.023-0.188-0.039
					c-0.069-0.033-0.104-0.053-0.172-0.084c-0.062-0.043-0.093-0.062-0.156-0.105c-0.046-0.052-0.07-0.077-0.117-0.13
					c-0.048-0.062-0.07-0.091-0.117-0.151c-0.039-0.068-0.059-0.103-0.1-0.171c-0.023-0.063-0.035-0.095-0.058-0.155
					c-0.023-0.072-0.037-0.106-0.061-0.177c-0.015-0.073-0.023-0.108-0.039-0.179c-0.009-0.071-0.014-0.11-0.021-0.184
					c0-0.146,0-0.217,0.002-0.363c0.009-0.073,0.01-0.112,0.019-0.187c0.018-0.075,0.027-0.114,0.044-0.188
					c0.018-0.147,0.024-0.222,0.04-0.369c0.018-0.067,0.026-0.102,0.044-0.17c0.009-0.071,0.013-0.109,0.022-0.183
					c0.016-0.076,0.023-0.113,0.041-0.187c0.017-0.068,0.024-0.103,0.044-0.168c0.049-0.228,0.075-0.34,0.125-0.564
					c0-0.066,0.004-0.096,0.004-0.163c0.008-0.073,0.013-0.11,0.021-0.185c0.018-0.074,0.025-0.113,0.042-0.189
					c0.01-0.073,0.013-0.108,0.022-0.184c0.009-0.065,0.014-0.1,0.024-0.166c0.033-0.148,0.051-0.223,0.084-0.373
					c0.016-0.101,0.021-0.15,0.037-0.25c0.014-0.107,0.021-0.16,0.034-0.267c0.034-0.149,0.05-0.226,0.084-0.374
					c0.01-0.075,0.015-0.109,0.022-0.186c0.01-0.058,0.017-0.088,0.029-0.146c0.009-0.073,0.01-0.11,0.02-0.186
					c0.024-0.082,0.038-0.125,0.061-0.209c0.02-0.068,0.029-0.101,0.047-0.166c0.026-0.224,0.042-0.336,0.069-0.558
					c0.017-0.074,0.027-0.112,0.044-0.188c0.014-0.098,0.021-0.148,0.035-0.246c0.022-0.109,0.034-0.163,0.057-0.271
					c0.019-0.074,0.026-0.112,0.044-0.186c0.026-0.068,0.041-0.103,0.067-0.17c0.045-0.046,0.067-0.067,0.115-0.113
					c0.071-0.039,0.106-0.06,0.178-0.101c0.066-0.013,0.101-0.021,0.164-0.036c0.085,0,0.127,0,0.212,0
					c0.15,0,0.227,0.002,0.378,0.002c0.139,0.034,0.207,0.054,0.346,0.088c0.047,0.054,0.071,0.078,0.116,0.132
					c0.007,0.071,0.011,0.107,0.017,0.181c-0.008,0.074-0.013,0.111-0.023,0.186c-0.016,0.099-0.021,0.147-0.037,0.248
					c-0.016,0.106-0.022,0.16-0.037,0.266c-0.035,0.151-0.053,0.225-0.09,0.374c-0.009,0.068-0.016,0.099-0.025,0.166
					c-0.009,0.073-0.013,0.112-0.022,0.187c-0.017,0.082-0.028,0.123-0.046,0.207c-0.015,0.098-0.02,0.148-0.035,0.246
					c-0.06,0.252-0.088,0.377-0.147,0.625c-0.008,0.075-0.013,0.11-0.022,0.186c-0.022,0.107-0.033,0.162-0.056,0.27
					c-0.042,0.174-0.062,0.262-0.103,0.438c-0.009,0.072-0.014,0.11-0.023,0.185c-0.011,0.065-0.014,0.098-0.024,0.164
					c-0.009,0.074-0.014,0.111-0.021,0.186c-0.044,0.143-0.066,0.214-0.11,0.355c-0.009,0.074-0.014,0.112-0.021,0.187
					c-0.038,0.207-0.057,0.308-0.093,0.515c-0.034,0.151-0.05,0.228-0.086,0.377c-0.008,0.074-0.012,0.111-0.021,0.186
					c-0.012,0.107-0.021,0.159-0.034,0.268c-0.012,0.131-0.017,0.196-0.029,0.327c-0.001,0.139-0.003,0.208-0.005,0.348
					c0.029,0.118,0.042,0.179,0.071,0.298c0.075,0.081,0.112,0.122,0.187,0.203c0.092,0.015,0.138,0.023,0.229,0.037
					c0.073-0.016,0.108-0.022,0.181-0.037c0.07-0.041,0.104-0.059,0.176-0.098c0.052-0.049,0.078-0.07,0.132-0.116
					c0.061-0.055,0.09-0.081,0.149-0.136c0.241-0.293,0.363-0.439,0.607-0.73c0.042-0.062,0.064-0.094,0.108-0.154
					c0.035-0.061,0.053-0.09,0.088-0.15c0.043-0.068,0.064-0.103,0.106-0.172c0.069-0.137,0.104-0.205,0.172-0.342
					c0.045-0.061,0.066-0.092,0.111-0.152c0.027-0.052,0.042-0.078,0.069-0.131c0.036-0.068,0.054-0.101,0.088-0.169
					c0.042-0.076,0.062-0.116,0.104-0.192c0.025-0.075,0.039-0.112,0.066-0.188c0.053-0.144,0.08-0.215,0.132-0.357
					c0.08-0.204,0.12-0.305,0.202-0.507c0.035-0.068,0.054-0.101,0.089-0.171c0.07-0.046,0.104-0.069,0.175-0.117
					c0.108,0.007,0.162,0.011,0.271,0.015C37.498,80.562,37.534,80.599,37.606,80.673z M33.68,74.809
					c0.033-0.067,0.053-0.102,0.087-0.168c0.062-0.063,0.094-0.097,0.154-0.16c0.063-0.047,0.096-0.068,0.158-0.115
					c0.081-0.034,0.122-0.051,0.203-0.083c0.075-0.022,0.112-0.036,0.187-0.06c0.085-0.009,0.127-0.01,0.21-0.021
					c0.078,0.011,0.114,0.014,0.192,0.022c0.07,0.033,0.107,0.053,0.179,0.086c0.062,0.043,0.095,0.063,0.157,0.105
					c0.064,0.051,0.097,0.076,0.16,0.127c0.051,0.059,0.073,0.092,0.121,0.152c0.032,0.07,0.049,0.105,0.081,0.175
					c0.016,0.071,0.022,0.108,0.037,0.179c0.007,0.08,0.012,0.121,0.02,0.2c-0.02,0.075-0.027,0.113-0.047,0.188
					c-0.035,0.068-0.054,0.103-0.09,0.171c-0.044,0.069-0.065,0.104-0.109,0.173c-0.055,0.054-0.079,0.081-0.135,0.135
					c-0.062,0.055-0.093,0.082-0.154,0.137c-0.073,0.039-0.109,0.06-0.181,0.1c-0.083,0.025-0.123,0.035-0.206,0.061
					c-0.077-0.002-0.113-0.002-0.189-0.004c-0.085-0.009-0.127-0.01-0.212-0.019c-0.143-0.067-0.213-0.101-0.355-0.169
					c-0.054-0.051-0.083-0.076-0.139-0.127c-0.047-0.06-0.073-0.09-0.12-0.15c-0.024-0.07-0.036-0.105-0.061-0.177
					c-0.017-0.071-0.022-0.108-0.039-0.179c0-0.073,0-0.108,0-0.184c0.01-0.081,0.017-0.124,0.024-0.207
					C33.64,74.924,33.652,74.887,33.68,74.809z"/>
				<path fill="#172A53" d="M43.34,80.183c0.006,0.089,0.011,0.132,0.017,0.222c-0.028,0.08-0.041,0.123-0.068,0.207
					c-0.087,0.184-0.131,0.275-0.215,0.46c-0.028,0.075-0.043,0.111-0.071,0.188c-0.027,0.066-0.043,0.101-0.069,0.166
					c-0.073,0.136-0.108,0.204-0.182,0.339c-0.028,0.06-0.044,0.086-0.072,0.146c-0.035,0.065-0.055,0.104-0.091,0.17
					c-0.057,0.127-0.086,0.19-0.142,0.315c-0.029,0.059-0.042,0.088-0.071,0.146c-0.044,0.076-0.065,0.112-0.109,0.19
					c-0.09,0.118-0.135,0.179-0.224,0.3c-0.036,0.066-0.056,0.1-0.092,0.167c-0.036,0.062-0.054,0.091-0.09,0.149
					c-0.045,0.061-0.066,0.092-0.111,0.151c-0.143,0.165-0.215,0.248-0.357,0.412c-0.106,0.097-0.161,0.146-0.268,0.244
					c-0.104,0.104-0.159,0.157-0.264,0.265c-0.062,0.052-0.09,0.079-0.151,0.134c-0.086,0.054-0.129,0.083-0.215,0.138
					c-0.093,0.048-0.141,0.074-0.236,0.122c-0.068,0.038-0.105,0.056-0.176,0.094c-0.071,0.03-0.104,0.044-0.176,0.074
					c-0.062,0.022-0.094,0.032-0.157,0.054c-0.073,0.014-0.109,0.022-0.181,0.036c-0.228,0.019-0.34,0.029-0.566,0.047
					c-0.073-0.001-0.11-0.001-0.184-0.003c-0.073-0.01-0.11-0.017-0.186-0.027c-0.1-0.023-0.151-0.035-0.251-0.058
					c-0.093-0.034-0.138-0.049-0.229-0.081c-0.069-0.033-0.105-0.051-0.174-0.086c-0.121-0.087-0.183-0.131-0.304-0.217
					c-0.046-0.053-0.068-0.078-0.114-0.131c-0.045-0.061-0.068-0.092-0.115-0.152c-0.075-0.124-0.114-0.186-0.19-0.308
					c-0.031-0.063-0.048-0.093-0.078-0.156c-0.031-0.069-0.044-0.105-0.075-0.176c-0.022-0.07-0.037-0.105-0.059-0.177
					c-0.024-0.063-0.034-0.095-0.057-0.158c-0.007-0.071-0.008-0.109-0.015-0.181c-0.015-0.071-0.022-0.108-0.037-0.181
					c-0.007-0.073-0.011-0.106-0.017-0.18c-0.017-0.08-0.024-0.121-0.041-0.199c-0.007-0.073-0.01-0.109-0.016-0.182
					c0.003-0.22,0.008-0.33,0.013-0.551c-0.007-0.073-0.011-0.107-0.018-0.181c0.007-0.366,0.011-0.548,0.019-0.915
					c0.009-0.074,0.016-0.111,0.025-0.186c0.001-0.073,0.001-0.109,0.003-0.182c0.021-0.147,0.031-0.224,0.05-0.37
					c0.015-0.107,0.021-0.161,0.036-0.269c0.019-0.098,0.026-0.146,0.041-0.246c0.011-0.073,0.016-0.112,0.026-0.188
					c0.018-0.072,0.027-0.11,0.044-0.184c0.01-0.074,0.018-0.112,0.027-0.187c0.018-0.075,0.026-0.112,0.045-0.187
					c0.009-0.074,0.012-0.109,0.021-0.185c0.01-0.098,0.015-0.147,0.021-0.246c0.024-0.106,0.037-0.161,0.061-0.269
					c0.037-0.149,0.057-0.226,0.094-0.375c-0.008-0.063-0.011-0.096-0.016-0.16c-0.028-0.037-0.044-0.058-0.07-0.096
					c-0.062-0.012-0.091-0.017-0.15-0.026c-0.067-0.001-0.101-0.003-0.169-0.005c-0.085-0.008-0.125-0.013-0.21-0.022
					c-0.086-0.024-0.129-0.037-0.215-0.062c-0.064-0.067-0.099-0.101-0.162-0.168c-0.024-0.071-0.036-0.105-0.059-0.177
					c-0.017-0.08-0.023-0.118-0.041-0.2c0.013-0.063,0.017-0.098,0.027-0.164c0.028-0.06,0.043-0.09,0.072-0.149
					c0.054-0.045,0.081-0.067,0.135-0.113c0.108-0.019,0.161-0.026,0.269-0.045c0.127-0.004,0.19-0.006,0.315-0.009
					c0.125-0.01,0.188-0.018,0.313-0.027c0.082-0.031,0.121-0.048,0.203-0.078c0.028-0.059,0.043-0.09,0.071-0.148
					c0.008-0.081,0.016-0.123,0.025-0.207c0.01-0.064,0.015-0.099,0.025-0.162c0.019-0.075,0.028-0.114,0.05-0.188
					c0.026-0.065,0.042-0.1,0.068-0.168c0.027-0.073,0.041-0.112,0.068-0.188c0.02-0.067,0.029-0.1,0.049-0.166
					c0.037-0.149,0.057-0.225,0.095-0.373c0.021-0.149,0.03-0.223,0.053-0.371c0.019-0.074,0.028-0.111,0.048-0.187
					c0.027-0.067,0.042-0.1,0.071-0.167c0.036-0.15,0.056-0.226,0.095-0.375c0.02-0.066,0.027-0.098,0.049-0.166
					c0.027-0.074,0.042-0.113,0.071-0.188c0.018-0.074,0.028-0.113,0.047-0.188c0.021-0.066,0.029-0.1,0.049-0.166
					c0.019-0.077,0.029-0.114,0.05-0.188c0.028-0.068,0.042-0.1,0.07-0.166c0.028-0.075,0.041-0.116,0.07-0.19
					c0.012-0.065,0.017-0.099,0.028-0.164c0.021-0.075,0.029-0.112,0.05-0.188c0.026-0.074,0.039-0.111,0.068-0.186
					c0.037-0.062,0.055-0.092,0.093-0.153c0.065-0.044,0.1-0.067,0.163-0.112c0.076-0.022,0.112-0.034,0.188-0.057
					c0.085,0.002,0.129,0.003,0.215,0.003c0.104,0.009,0.154,0.013,0.256,0.021c0.113,0.015,0.169,0.022,0.281,0.038
					c0.079,0.033,0.118,0.053,0.198,0.087c0.073,0.051,0.107,0.076,0.181,0.129c0.032,0.086,0.049,0.128,0.081,0.216
					c-0.011,0.073-0.018,0.112-0.03,0.186c-0.033,0.107-0.051,0.162-0.085,0.269c-0.04,0.118-0.063,0.176-0.105,0.293
					c-0.034,0.108-0.05,0.161-0.085,0.27c-0.02,0.083-0.029,0.126-0.048,0.208c-0.014,0.05-0.019,0.072-0.032,0.121
					c-0.019,0.084-0.029,0.127-0.047,0.209c-0.071,0.274-0.108,0.41-0.181,0.685c-0.02,0.064-0.027,0.099-0.049,0.165
					c-0.018,0.075-0.03,0.112-0.049,0.188c-0.025,0.106-0.039,0.16-0.064,0.267c-0.041,0.126-0.06,0.19-0.1,0.314
					c-0.046,0.174-0.068,0.262-0.114,0.435c-0.01,0.074-0.016,0.11-0.026,0.186c-0.028,0.065-0.04,0.099-0.069,0.167
					c-0.021,0.067-0.03,0.1-0.051,0.166c0.005,0.057,0.007,0.085,0.012,0.141c0.054,0.035,0.08,0.054,0.134,0.089
					c0.091,0.012,0.14,0.014,0.232,0.024c0.084-0.007,0.125-0.011,0.208-0.017c0.142-0.021,0.212-0.029,0.354-0.049
					c0.115-0.016,0.174-0.025,0.289-0.042c0.261-0.018,0.389-0.03,0.647-0.049c0.11,0,0.165-0.001,0.273-0.001
					c0.062,0.044,0.093,0.066,0.153,0.111c0.024,0.087,0.036,0.131,0.06,0.219c0.009,0.105,0.01,0.156,0.019,0.26
					c-0.02,0.075-0.029,0.112-0.049,0.188c-0.037,0.061-0.056,0.091-0.093,0.148c-0.057,0.047-0.083,0.068-0.14,0.112
					c-0.072,0.03-0.109,0.044-0.183,0.074c-0.073,0.021-0.108,0.034-0.183,0.056c-0.083,0.014-0.124,0.021-0.207,0.036
					c-0.224,0.022-0.335,0.037-0.559,0.062c-0.094,0.008-0.138,0.013-0.229,0.02c-0.076-0.002-0.113-0.004-0.188-0.007
					c-0.308,0.024-0.462,0.037-0.77,0.062c-0.047,0.038-0.071,0.057-0.117,0.092c-0.021,0.066-0.031,0.101-0.05,0.168
					C38.995,77.851,38.984,77.9,38.958,78c-0.022,0.132-0.034,0.197-0.056,0.328c-0.022,0.141-0.034,0.209-0.055,0.351
					c-0.029,0.134-0.046,0.198-0.076,0.33c-0.021,0.14-0.031,0.212-0.054,0.35c-0.021,0.132-0.032,0.198-0.054,0.331
					c-0.017,0.115-0.024,0.174-0.04,0.286c-0.004,0.05-0.006,0.074-0.011,0.123c-0.016,0.116-0.021,0.172-0.036,0.287
					c-0.018,0.089-0.027,0.138-0.044,0.229c-0.018,0.081-0.025,0.124-0.044,0.206c-0.021,0.147-0.03,0.221-0.052,0.369
					c0,0.098,0,0.146,0,0.244c-0.006,0.105-0.01,0.159-0.017,0.265c-0.003,0.146-0.006,0.218-0.01,0.366
					c0.021,0.225,0.028,0.338,0.049,0.562c0.026,0.104,0.038,0.156,0.062,0.26c0.025,0.095,0.037,0.143,0.063,0.236
					c0.03,0.072,0.045,0.107,0.076,0.178c0.039,0.07,0.057,0.104,0.096,0.174c0.046,0.053,0.07,0.08,0.116,0.134
					c0.093,0.049,0.138,0.073,0.233,0.122c0.116,0.037,0.178,0.057,0.296,0.095c0.09,0.01,0.136,0.013,0.227,0.023
					c0.082-0.007,0.122-0.011,0.204-0.018c0.088-0.022,0.132-0.037,0.22-0.059c0.187-0.113,0.279-0.167,0.468-0.281
					c0.212-0.212,0.317-0.315,0.531-0.528c0.053-0.061,0.079-0.092,0.133-0.15c0.037-0.053,0.054-0.078,0.091-0.129
					c0.075-0.112,0.11-0.166,0.185-0.277c0.097-0.137,0.145-0.207,0.24-0.344c0.037-0.06,0.059-0.088,0.095-0.147
					c0.027-0.068,0.039-0.103,0.068-0.168c0.035-0.068,0.054-0.103,0.091-0.169c0.044-0.068,0.065-0.102,0.11-0.171
					c0.036-0.059,0.056-0.088,0.093-0.149c0.036-0.068,0.054-0.102,0.09-0.17c0.029-0.066,0.042-0.098,0.071-0.165
					c0.019-0.075,0.029-0.112,0.048-0.187c0.035-0.084,0.055-0.125,0.089-0.211c0.036-0.066,0.056-0.1,0.091-0.166
					c0.044-0.084,0.065-0.129,0.109-0.211c0.093-0.071,0.142-0.106,0.236-0.18c0.107,0.008,0.16,0.016,0.269,0.024
					C43.232,80.068,43.269,80.105,43.34,80.183z"/>
				<path fill="#172A53" d="M49.145,79.398c-0.037,0.058-0.058,0.088-0.096,0.146c-0.095,0.119-0.14,0.178-0.232,0.297
					c-0.111,0.103-0.166,0.152-0.278,0.255c-0.054,0.044-0.083,0.065-0.139,0.109c-0.071,0.044-0.107,0.065-0.179,0.109
					c-0.049,0.019-0.073,0.026-0.122,0.045c-0.079,0.056-0.117,0.082-0.197,0.133c-0.05,0.026-0.074,0.043-0.122,0.067
					c-0.072,0.037-0.106,0.055-0.18,0.091c-0.081,0.029-0.122,0.043-0.203,0.072c-0.072,0.028-0.108,0.042-0.182,0.071
					c-0.072,0.011-0.11,0.017-0.182,0.03c-0.082,0.021-0.122,0.031-0.204,0.051c-0.089,0.014-0.135,0.02-0.226,0.034
					c-0.096,0.021-0.145,0.034-0.244,0.056c-0.072,0.012-0.109,0.018-0.183,0.03c-0.074,0.004-0.11,0.005-0.184,0.01
					c-0.147-0.008-0.223-0.012-0.371-0.018c-0.149,0.002-0.224,0-0.371,0.003c-0.074-0.006-0.113-0.006-0.188-0.008
					c-0.223-0.036-0.335-0.054-0.558-0.088c-0.059,0.004-0.088,0.006-0.146,0.01c-0.037,0.035-0.058,0.052-0.097,0.088
					c-0.011,0.056-0.019,0.086-0.032,0.144c0.005,0.073,0.007,0.108,0.012,0.179c-0.003,0.084-0.003,0.127-0.007,0.205
					c0.009,0.138,0.015,0.205,0.022,0.345c0.014,0.079,0.021,0.118,0.034,0.2c0.021,0.062,0.03,0.095,0.051,0.158
					c0.059,0.143,0.09,0.213,0.146,0.354c0.09,0.123,0.135,0.187,0.225,0.31c0.052,0.055,0.079,0.079,0.132,0.133
					c0.052,0.045,0.078,0.068,0.13,0.115c0.136,0.07,0.204,0.107,0.339,0.181c0.083,0.018,0.123,0.028,0.207,0.049
					c0.074,0.019,0.111,0.026,0.187,0.047c0.057,0.006,0.086,0.009,0.144,0.015c0.074,0.01,0.11,0.017,0.185,0.028
					c0.074,0.003,0.109,0.005,0.185,0.008c0.081-0.005,0.123-0.007,0.205-0.011c0.072-0.012,0.105-0.02,0.178-0.031
					c0.21-0.053,0.314-0.08,0.524-0.132c0.073-0.021,0.109-0.028,0.182-0.049c0.072-0.027,0.108-0.044,0.18-0.071
					c0.063-0.027,0.097-0.043,0.161-0.07c0.135-0.063,0.202-0.096,0.338-0.158c0.128-0.073,0.191-0.106,0.318-0.178
					c0.11-0.097,0.164-0.145,0.274-0.238c0.054-0.043,0.081-0.065,0.136-0.107c0.056-0.051,0.083-0.078,0.138-0.129
					c0.109-0.112,0.164-0.166,0.271-0.278c0.094-0.116,0.142-0.174,0.232-0.291c0.039-0.059,0.058-0.089,0.097-0.146
					c0.046-0.066,0.068-0.103,0.113-0.168c0.078-0.118,0.117-0.177,0.192-0.294c0.038-0.065,0.059-0.099,0.096-0.164
					c0.031-0.067,0.046-0.101,0.076-0.165c0.038-0.067,0.056-0.102,0.095-0.167c0.031-0.066,0.044-0.101,0.075-0.166
					c0.039-0.059,0.059-0.088,0.098-0.146c0.029-0.066,0.044-0.098,0.073-0.164c0.03-0.075,0.045-0.111,0.074-0.186
					c0.03-0.066,0.046-0.1,0.077-0.166c0.036-0.066,0.057-0.1,0.094-0.165c0.056-0.042,0.087-0.066,0.142-0.108
					c0.073-0.003,0.111-0.003,0.186-0.007c0.074,0.046,0.112,0.067,0.189,0.114c0.044,0.07,0.067,0.104,0.111,0.176
					c-0.005,0.074-0.008,0.111-0.013,0.182c-0.031,0.075-0.047,0.114-0.076,0.188c-0.037,0.091-0.057,0.135-0.094,0.227
					c-0.046,0.092-0.069,0.135-0.115,0.227c-0.037,0.09-0.056,0.136-0.094,0.228c-0.045,0.091-0.066,0.138-0.11,0.227
					c-0.046,0.085-0.07,0.124-0.116,0.207c-0.076,0.132-0.113,0.2-0.189,0.332c-0.023,0.051-0.035,0.073-0.058,0.125
					c-0.045,0.075-0.067,0.111-0.113,0.186c-0.075,0.117-0.114,0.177-0.191,0.293c-0.047,0.06-0.071,0.089-0.116,0.148
					c-0.048,0.051-0.07,0.076-0.116,0.125c-0.047,0.059-0.071,0.09-0.116,0.149c-0.054,0.067-0.082,0.1-0.134,0.166
					c-0.024,0.033-0.036,0.051-0.059,0.084c-0.056,0.067-0.082,0.102-0.135,0.17c-0.048,0.057-0.07,0.088-0.116,0.146
					c-0.108,0.102-0.162,0.152-0.273,0.256c-0.077,0.068-0.117,0.104-0.194,0.172c-0.069,0.068-0.104,0.103-0.175,0.17
					c-0.125,0.089-0.188,0.129-0.314,0.218c-0.198,0.099-0.297,0.149-0.494,0.25c-0.065,0.026-0.098,0.041-0.159,0.069
					c-0.073,0.029-0.109,0.043-0.183,0.071c-0.103,0.022-0.153,0.032-0.258,0.054c-0.097,0.029-0.144,0.045-0.239,0.073
					c-0.17,0.027-0.256,0.039-0.424,0.064c-0.104,0.015-0.157,0.023-0.262,0.037c-0.088,0.014-0.132,0.021-0.223,0.034
					c-0.072,0.004-0.107,0.007-0.181,0.01c-0.295-0.014-0.439-0.021-0.735-0.034c-0.065-0.013-0.097-0.019-0.163-0.03
					c-0.073-0.02-0.112-0.029-0.187-0.049c-0.075-0.027-0.111-0.041-0.188-0.068c-0.065-0.028-0.1-0.042-0.167-0.07
					c-0.134-0.064-0.203-0.097-0.337-0.161c-0.067-0.027-0.1-0.04-0.168-0.069c-0.059-0.044-0.09-0.066-0.148-0.109
					c-0.062-0.055-0.092-0.08-0.152-0.133c-0.036-0.038-0.053-0.058-0.088-0.095c-0.063-0.062-0.093-0.091-0.155-0.153
					c-0.052-0.054-0.077-0.078-0.13-0.132c-0.046-0.062-0.069-0.093-0.115-0.155c-0.035-0.053-0.054-0.08-0.091-0.134
					c-0.038-0.069-0.055-0.104-0.094-0.176c-0.028-0.063-0.044-0.093-0.072-0.158c-0.029-0.069-0.044-0.106-0.075-0.176
					c-0.02-0.071-0.032-0.108-0.054-0.179c-0.021-0.063-0.031-0.096-0.051-0.16c-0.022-0.07-0.032-0.106-0.055-0.178
					c-0.041-0.215-0.061-0.324-0.1-0.541c-0.012-0.151-0.018-0.229-0.029-0.382c0.004-0.074,0.005-0.11,0.009-0.183
					c-0.005-0.073-0.007-0.11-0.012-0.184c0.032-0.22,0.049-0.332,0.083-0.552c0.02-0.068,0.029-0.101,0.049-0.166
					c0.013-0.074,0.02-0.112,0.03-0.185c0.019-0.074,0.028-0.111,0.046-0.186c0.012-0.074,0.02-0.111,0.031-0.186
					c0.018-0.074,0.029-0.111,0.047-0.187c0.027-0.091,0.042-0.135,0.07-0.226c0.033-0.099,0.05-0.149,0.084-0.25
					c0.037-0.076,0.056-0.113,0.092-0.188c0.044-0.093,0.064-0.139,0.108-0.23c0.052-0.084,0.077-0.129,0.13-0.211
					c0.028-0.076,0.043-0.113,0.069-0.188c0.037-0.06,0.058-0.09,0.096-0.149c0.045-0.059,0.068-0.088,0.114-0.148
					c0.115-0.137,0.175-0.207,0.289-0.346c0.117-0.129,0.176-0.193,0.291-0.322c0.063-0.061,0.096-0.092,0.16-0.151
					c0.069-0.062,0.106-0.092,0.179-0.153c0.079-0.061,0.12-0.093,0.198-0.154c0.071-0.062,0.105-0.093,0.177-0.153
					c0.082-0.054,0.121-0.081,0.202-0.136c0.078-0.045,0.119-0.067,0.2-0.113c0.075-0.036,0.11-0.055,0.184-0.09
					c0.106-0.057,0.159-0.084,0.264-0.14c0.173-0.066,0.258-0.099,0.432-0.165c0.147-0.041,0.223-0.062,0.372-0.102
					c0.106-0.024,0.16-0.036,0.268-0.059c0.184-0.01,0.276-0.013,0.46-0.023c0.108,0.011,0.164,0.016,0.274,0.025
					c0.134,0.018,0.202,0.025,0.337,0.043c0.11,0.019,0.163,0.026,0.272,0.045c0.076,0.021,0.117,0.032,0.193,0.053
					c0.076,0.027,0.113,0.043,0.19,0.072c0.068,0.027,0.103,0.041,0.171,0.07c0.052,0.03,0.079,0.045,0.13,0.076
					c0.122,0.091,0.181,0.137,0.303,0.229c0.054,0.054,0.078,0.079,0.131,0.133c0.055,0.078,0.081,0.119,0.136,0.198
					c0.046,0.095,0.068,0.141,0.114,0.235c0.029,0.073,0.044,0.108,0.071,0.18c0.021,0.073,0.031,0.107,0.049,0.182
					c0.013,0.07,0.02,0.106,0.031,0.179c0.005,0.098,0.008,0.146,0.012,0.244c-0.004,0.105-0.007,0.155-0.011,0.262
					c-0.004,0.082-0.004,0.125-0.01,0.203c-0.021,0.099-0.03,0.148-0.05,0.244c-0.029,0.101-0.044,0.149-0.072,0.248
					c-0.03,0.082-0.045,0.121-0.074,0.204c-0.023,0.041-0.034,0.064-0.058,0.105c-0.037,0.077-0.057,0.112-0.093,0.187
					C49.19,79.299,49.175,79.331,49.145,79.398z M46.491,77.106c-0.114,0.055-0.171,0.084-0.283,0.139
					c-0.099,0.056-0.146,0.08-0.242,0.134c-0.063,0.045-0.097,0.068-0.161,0.112c-0.11,0.104-0.166,0.156-0.276,0.259
					c-0.07,0.076-0.104,0.117-0.176,0.193c-0.061,0.076-0.092,0.115-0.153,0.191c-0.055,0.068-0.082,0.104-0.135,0.171
					c-0.052,0.093-0.081,0.137-0.134,0.231c-0.052,0.084-0.078,0.125-0.13,0.211c-0.037,0.074-0.057,0.111-0.092,0.188
					c-0.044,0.092-0.066,0.137-0.11,0.231c-0.025,0.098-0.04,0.146-0.067,0.247c-0.026,0.074-0.043,0.11-0.07,0.186
					c-0.021,0.066-0.031,0.1-0.052,0.166c-0.005,0.057-0.007,0.086-0.012,0.145c0.044,0.037,0.066,0.054,0.11,0.091
					c0.107,0.019,0.163,0.026,0.271,0.044c0.166-0.002,0.249-0.002,0.413-0.003c0.083,0.003,0.124,0.003,0.207,0.007
					c0.23-0.014,0.348-0.021,0.577-0.034c0.081-0.021,0.12-0.034,0.201-0.054c0.075-0.021,0.11-0.031,0.185-0.051
					c0.08-0.037,0.12-0.057,0.201-0.094c0.049-0.019,0.072-0.027,0.121-0.046c0.079-0.046,0.12-0.067,0.199-0.114
					c0.056-0.041,0.085-0.065,0.139-0.109c0.057-0.05,0.086-0.076,0.14-0.126c0.054-0.062,0.08-0.092,0.136-0.151
					c0.054-0.051,0.083-0.077,0.137-0.129c0.047-0.066,0.071-0.102,0.117-0.168c0.039-0.059,0.058-0.089,0.094-0.146
					c0.031-0.066,0.047-0.099,0.075-0.166c0.037-0.074,0.059-0.111,0.096-0.187c0.042-0.149,0.062-0.222,0.104-0.369
					c0.012-0.083,0.02-0.126,0.03-0.207c0.005-0.073,0.009-0.108,0.012-0.183c-0.012-0.079-0.02-0.12-0.032-0.2
					c-0.037-0.07-0.056-0.106-0.093-0.177c-0.053-0.056-0.078-0.081-0.132-0.135c-0.068-0.046-0.103-0.067-0.171-0.111
					c-0.078-0.029-0.117-0.045-0.193-0.071c-0.076-0.015-0.114-0.019-0.188-0.03c-0.076-0.006-0.114-0.006-0.188-0.009
					c-0.083,0.021-0.124,0.029-0.205,0.049C46.652,77.062,46.597,77.076,46.491,77.106z"/>
			</g>
		</g>
	</g>
</g>
<g>
	<g>
		<polygon fill="#FFFFFF" points="58.771,60.108 56.015,59.315 52.605,62.36 51.936,63.805 55.595,62.809 57.583,63.47 
			59.25,61.423 59.45,60.424 		"/>
		<polygon fill="#C8982C" points="58.753,60.679 56.162,60.059 53.144,62.471 56.284,61.325 		"/>
	</g>
</g>
</svg>
