<?xml version="1.0" encoding="utf-8"?>
<!-- Generator: Adobe Illustrator 16.0.4, SVG Export Plug-In . SVG Version: 6.00 Build 0)  -->
<!DOCTYPE svg PUBLIC "-//W3C//DTD SVG 1.1//EN" "http://www.w3.org/Graphics/SVG/1.1/DTD/svg11.dtd">
<svg version="1.1" id="Layer_1" xmlns="http://www.w3.org/2000/svg" xmlns:xlink="http://www.w3.org/1999/xlink" x="0px" y="0px"
	 width="80px" height="80px" viewBox="0 0 80 80" enable-background="new 0 0 80 80" xml:space="preserve">
<linearGradient id="SVGID_1_" gradientUnits="userSpaceOnUse" x1="39.9995" y1="8.5923" x2="39.9995" y2="77.6072">
	<stop  offset="0" style="stop-color:#005CFF"/>
	<stop  offset="1" style="stop-color:#0047AD"/>
</linearGradient>
<circle fill="url(#SVGID_1_)" cx="40" cy="40" r="40"/>
<g>
	<g>
		<g>
			<path fill="#FFFFFF" d="M35.887,38.626c0,0,3.885-0.288,3.885-4.844c0-4.556-3.179-6.779-7.205-6.779h-7.41h-0.218h-5.619v25.459
				h5.619h0.218h7.41c0,0,8.087,0.255,8.087-7.514C40.654,44.948,41.008,38.626,35.887,38.626z M25.157,31.527h6.457h0.954
				c0,0,1.801,0,1.801,2.649c0,2.649-1.06,3.032-2.26,3.032h-6.951V31.527z M32.225,47.938h-7.068v-6.804h7.41
				c0,0,2.684-0.036,2.684,3.496C35.251,47.574,33.288,47.908,32.225,47.938z"/>
			<g>
				<path fill="#FFFFFF" d="M51.439,33.481c-9.789,0-9.781,9.781-9.781,9.781s-0.671,9.732,9.782,9.732c0,0,8.712,0.498,8.712-6.77
					h-4.48c0,0,0.148,2.736-4.081,2.736c0,0-4.48,0.3-4.48-4.43h13.19C60.301,44.531,61.745,33.481,51.439,33.481z M55.423,41.134
					H47.06c0,0,0.548-3.925,4.48-3.925S55.423,41.134,55.423,41.134z"/>
				<rect x="45.964" y="28.502" fill="#FFFFFF" width="10.503" height="3.136"/>
			</g>
		</g>
	</g>
	<g opacity="0.6">
		<g>
			<linearGradient id="SVGID_2_" gradientUnits="userSpaceOnUse" x1="20.4648" y1="26.3428" x2="35.4668" y2="52.3269">
				<stop  offset="0.2247" style="stop-color:#FFFFFF;stop-opacity:0.3"/>
				<stop  offset="0.4011" style="stop-color:#FFFFFF;stop-opacity:0"/>
			</linearGradient>
			<path fill="url(#SVGID_2_)" d="M35.887,38.626c0,0,3.885-0.288,3.885-4.844c0-4.556-3.179-6.779-7.205-6.779h-7.41h-0.218h-5.619
				v25.459h5.619h0.218h7.41c0,0,8.087,0.255,8.087-7.514C40.654,44.948,41.008,38.626,35.887,38.626z M25.157,31.527h6.457h0.954
				c0,0,1.801,0,1.801,2.649c0,2.649-1.06,3.032-2.26,3.032h-6.951V31.527z M32.225,47.938h-7.068v-6.804h7.41
				c0,0,2.684-0.036,2.684,3.496C35.251,47.574,33.288,47.908,32.225,47.938z"/>
			<g>
				<linearGradient id="SVGID_3_" gradientUnits="userSpaceOnUse" x1="46.1855" y1="34.7559" x2="56.2686" y2="52.2201">
					<stop  offset="0.2247" style="stop-color:#FFFFFF;stop-opacity:0.3"/>
					<stop  offset="0.4011" style="stop-color:#FFFFFF;stop-opacity:0"/>
				</linearGradient>
				<path fill="url(#SVGID_3_)" d="M51.439,33.481c-9.789,0-9.781,9.781-9.781,9.781s-0.671,9.732,9.782,9.732
					c0,0,8.712,0.498,8.712-6.77h-4.48c0,0,0.148,2.736-4.081,2.736c0,0-4.48,0.3-4.48-4.43h13.19
					C60.301,44.531,61.745,33.481,51.439,33.481z M55.423,41.134H47.06c0,0,0.548-3.925,4.48-3.925S55.423,41.134,55.423,41.134z"/>
				<linearGradient id="SVGID_4_" gradientUnits="userSpaceOnUse" x1="49.2236" y1="26.6206" x2="53.207" y2="33.5201">
					<stop  offset="0.2247" style="stop-color:#FFFFFF;stop-opacity:0.3"/>
					<stop  offset="0.4011" style="stop-color:#FFFFFF;stop-opacity:0"/>
				</linearGradient>
				<rect x="45.964" y="28.502" fill="url(#SVGID_4_)" width="10.503" height="3.136"/>
			</g>
		</g>
	</g>
</g>
</svg>
