<?xml version="1.0" encoding="utf-8"?>
<!-- Generator: Adobe Illustrator 16.0.4, SVG Export Plug-In . SVG Version: 6.00 Build 0)  -->
<!DOCTYPE svg PUBLIC "-//W3C//DTD SVG 1.1//EN" "http://www.w3.org/Graphics/SVG/1.1/DTD/svg11.dtd">
<svg version="1.1" id="Layer_1" xmlns="http://www.w3.org/2000/svg" xmlns:xlink="http://www.w3.org/1999/xlink" x="0px" y="0px"
	 width="80px" height="80px" viewBox="0 0 80 80" enable-background="new 0 0 80 80" xml:space="preserve">
<circle fill="#205081" cx="40" cy="40" r="40"/>
<g>
	<path fill="#FFFFFF" d="M40.002,18.893L40.002,18.893L40.002,18.893c-10.068,0-18.284,2.719-18.284,6.064
		c0,0.896,2.18,13.563,3.078,18.614c0.387,2.271,6.214,5.557,15.206,5.557v-0.031v0.031c8.992,0,14.819-3.317,15.206-5.557
		c0.867-5.021,3.074-17.718,3.074-18.614C58.255,21.611,50.039,18.893,40.002,18.893z M40.002,45.062
		c-3.196,0-5.797-2.598-5.797-5.795c0-3.196,2.601-5.795,5.797-5.795s5.796,2.599,5.796,5.795
		C45.798,42.465,43.198,45.062,40.002,45.062z M40.002,26.841c-6.451,0-11.711-1.137-11.711-2.511c0-1.375,5.26-2.479,11.711-2.479
		s11.711,1.136,11.711,2.51C51.682,25.735,46.453,26.841,40.002,26.841z"/>
	<path fill="#FFFFFF" d="M53.116,48.616c-0.269,0-0.508,0.212-0.508,0.212s-4.509,3.555-12.635,3.555
		c-8.128,0-12.64-3.555-12.64-3.555s-0.206-0.212-0.506-0.212c-0.33,0-0.657,0.212-0.657,0.718c0,0.062,0,0.09,0,0.149
		c0.686,3.735,1.193,6.395,1.284,6.784c0.596,2.747,5.974,4.84,12.457,4.84l0,0l0,0l0,0l0,0c6.484,0,11.86-2.064,12.459-4.84
		c0.087-0.421,0.596-3.049,1.284-6.784c0-0.06,0-0.088,0-0.149C53.774,48.828,53.443,48.616,53.116,48.616z"/>
	<circle fill="#FFFFFF" cx="40.002" cy="39.238" r="2.899"/>
</g>
</svg>
