<?xml version="1.0" encoding="utf-8"?>
<!-- Generator: Adobe Illustrator 16.0.4, SVG Export Plug-In . SVG Version: 6.00 Build 0)  -->
<!DOCTYPE svg PUBLIC "-//W3C//DTD SVG 1.1//EN" "http://www.w3.org/Graphics/SVG/1.1/DTD/svg11.dtd">
<svg version="1.1" id="Layer_1" xmlns="http://www.w3.org/2000/svg" xmlns:xlink="http://www.w3.org/1999/xlink" x="0px" y="0px"
	 width="80px" height="80px" viewBox="80.729 304.666 80 80" enable-background="new 80.729 304.666 80 80" xml:space="preserve">
<g>
	<circle fill="#423535" cx="120.748" cy="344.686" r="40.019"/>
	<g>
		<path fill="#FFFFFF" d="M137.848,334.162c0,1.018-0.314,1.988-0.946,2.916c-0.63,0.926-1.415,1.719-2.354,2.375
			c-4.841,3.359-7.853,5.451-9.037,6.275c-0.129,0.09-0.402,0.287-0.82,0.588c-0.418,0.303-0.766,0.547-1.043,0.734
			c-0.276,0.188-0.611,0.396-1.004,0.627c-0.393,0.232-0.763,0.406-1.109,0.521c-0.348,0.115-0.67,0.174-0.967,0.174h-0.02h-0.019
			c-0.297,0-0.618-0.059-0.966-0.174s-0.717-0.289-1.109-0.521c-0.394-0.23-0.728-0.439-1.005-0.627
			c-0.276-0.188-0.624-0.432-1.042-0.734c-0.419-0.301-0.692-0.498-0.82-0.588c-1.172-0.824-2.858-2-5.06-3.523
			c-2.201-1.525-3.521-2.443-3.958-2.752c-0.798-0.541-1.551-1.283-2.259-2.23c-0.708-0.945-1.062-1.824-1.062-2.635
			c0-1.004,0.267-1.842,0.802-2.51c0.534-0.67,1.296-1.006,2.288-1.006h28.422c0.836,0,1.561,0.303,2.172,0.908
			S137.848,333.312,137.848,334.162z M137.848,339.84v15.33c0,0.85-0.302,1.576-0.906,2.182c-0.606,0.605-1.333,0.908-2.183,0.908
			h-28.422c-0.85,0-1.577-0.303-2.182-0.908c-0.605-0.605-0.908-1.332-0.908-2.182v-15.33c0.566,0.631,1.216,1.191,1.95,1.68
			c4.659,3.166,7.858,5.387,9.597,6.66c0.733,0.541,1.329,0.963,1.786,1.266c0.456,0.303,1.064,0.611,1.824,0.928
			c0.76,0.314,1.468,0.473,2.124,0.473h0.019h0.02c0.657,0,1.365-0.158,2.125-0.473c0.759-0.316,1.367-0.625,1.824-0.928
			s1.052-0.725,1.786-1.266c2.188-1.582,5.394-3.803,9.615-6.66C136.651,341.016,137.294,340.457,137.848,339.84z"/>
	</g>
</g>
</svg>
