<?xml version="1.0" encoding="utf-8"?>
<!-- Generator: Adobe Illustrator 16.0.4, SVG Export Plug-In . SVG Version: 6.00 Build 0)  -->
<!DOCTYPE svg PUBLIC "-//W3C//DTD SVG 1.1//EN" "http://www.w3.org/Graphics/SVG/1.1/DTD/svg11.dtd">
<svg version="1.1" id="Layer_1" xmlns="http://www.w3.org/2000/svg" xmlns:xlink="http://www.w3.org/1999/xlink" x="0px" y="0px"
	 width="80px" height="80px" viewBox="0 0 80 80" enable-background="new 0 0 80 80" xml:space="preserve">
<path fill="#222626" d="M40,0C17.909,0,0,17.909,0,40c0,18.662,12.78,34.337,30.065,38.755c-0.014-3.591-0.033-7.887-0.033-7.887
	s-1.7,0.292-4.127,0.292c-6.116,0-8.049-3.904-8.969-6.087c-1.198-2.844-2.751-4.181-4.402-5.248
	c-1.013-0.656-1.246-1.43-0.073-1.65c5.413-1.019,6.797,6.14,10.412,7.281c2.58,0.812,5.897,0.461,7.547-0.608
	c0.218-2.184,1.794-4.076,3.106-5.071c-0.084-0.008-0.167-0.015-0.249-0.024c-9.045-0.916-14.423-4.099-17.224-9.185l-1.223-2.792
	c-0.885-2.604-1.277-5.588-1.277-8.921c0-5.917,1.844-8.15,4.319-11.305c-1.893-6.746,0.68-11.356,0.68-11.356
	s3.979-0.825,11.501,4.562c4.077-1.748,14.949-1.893,20.093-0.387c3.157-2.088,8.932-5.047,11.259-4.219
	c0.634,1.015,1.991,3.977,0.828,10.479c0.789,1.426,4.899,4.466,4.915,13.055c-0.064,3.168-0.395,5.843-1.005,8.106l-0.995,2.797
	c-2.431,5.337-7.134,7.692-14.526,8.802c-0.903,0.137-1.854,0.254-2.837,0.357c2.93,1.844,3.769,4.157,3.769,10.418
	c0,2.943-0.019,5.831-0.035,8.146C67.994,73.361,80,58.086,80,40C80,17.909,62.092,0,40,0z"/>
</svg>
