<?xml version="1.0" encoding="utf-8"?>
<!-- Generator: Adobe Illustrator 16.0.4, SVG Export Plug-In . SVG Version: 6.00 Build 0)  -->
<!DOCTYPE svg PUBLIC "-//W3C//DTD SVG 1.1//EN" "http://www.w3.org/Graphics/SVG/1.1/DTD/svg11.dtd">
<svg version="1.1" id="Layer_1" xmlns="http://www.w3.org/2000/svg" xmlns:xlink="http://www.w3.org/1999/xlink" x="0px" y="0px"
	 width="80px" height="80px" viewBox="0 0 80 80" enable-background="new 0 0 80 80" xml:space="preserve">
<path fill="#DC493D" d="M79.875,39.984c0,22.059-17.879,39.937-39.938,39.937C17.879,79.921,0,62.043,0,39.984
	C0,17.926,17.879,0.046,39.938,0.046C61.996,0.046,79.875,17.926,79.875,39.984"/>
<g>
	<g>
		<defs>
			<path id="SVGID_1_" d="M36.655,31.771l0.007-0.008c-3.847-3.765-10.214-3.594-14.166,0.365
				c-4.154,4.164-4.198,10.968-0.099,15.187c4.098,4.221,11.261,4.262,15.102,0.069c1.065-1.163,1.667-2.542,1.964-4.046H29.88
				v-7.068h16.878c0.74,6.062-0.192,11.985-4.126,16.211c-6.111,6.567-17.098,6.913-24.173,1.114l26.054,26.056l0.01,0.01
				c17.417-1.993,31.443-15.206,34.657-32.227l-0.025-0.028l-17.06-17.057v8.208h-8.206L41.881,26.548L36.655,31.771z"/>
		</defs>
		<clipPath id="SVGID_2_">
			<use xlink:href="#SVGID_1_"  overflow="visible"/>
		</clipPath>
		<g clip-path="url(#SVGID_2_)">
			<g>
				<defs>
					
						<rect id="SVGID_3_" x="8.434" y="12.801" transform="matrix(-0.7071 -0.7071 0.7071 -0.7071 45.6498 125.1186)" width="80.608" height="80.607"/>
				</defs>
				<clipPath id="SVGID_4_">
					<use xlink:href="#SVGID_3_"  overflow="visible"/>
				</clipPath>
				<polygon clip-path="url(#SVGID_4_)" fill="#BA3E35" points="11.048,-3.895 -8.259,15.412 -8.259,-3.895 				"/>
				<polygon clip-path="url(#SVGID_4_)" fill="#BA3E35" points="14.636,-3.895 -8.259,19 -8.259,15.223 10.859,-3.895 				"/>
				<polygon clip-path="url(#SVGID_4_)" fill="#BB3E35" points="18.418,-3.895 -8.259,22.782 -8.259,19 14.636,-3.895 				"/>
				<polygon clip-path="url(#SVGID_4_)" fill="#BC3E35" points="22.195,-3.895 -8.259,26.564 -8.259,22.782 18.418,-3.895 				"/>
				<polygon clip-path="url(#SVGID_4_)" fill="#BD3E35" points="25.978,-3.895 -8.259,30.342 -8.259,26.564 22.195,-3.895 				"/>
				<polygon clip-path="url(#SVGID_4_)" fill="#BE3F35" points="29.754,-3.895 -8.259,34.119 -8.259,30.342 25.978,-3.895 				"/>
				<polygon clip-path="url(#SVGID_4_)" fill="#BF3F35" points="33.537,-3.895 -8.259,37.901 -8.259,34.119 29.754,-3.895 				"/>
				<polygon clip-path="url(#SVGID_4_)" fill="#C03F35" points="37.314,-3.895 -8.259,41.683 -8.259,37.901 33.537,-3.895 				"/>
				<polygon clip-path="url(#SVGID_4_)" fill="#C13F35" points="41.091,-3.895 -8.259,45.46 -8.259,41.683 37.314,-3.895 				"/>
				<polygon clip-path="url(#SVGID_4_)" fill="#C23F35" points="44.873,-3.895 -8.259,49.237 -8.259,45.46 41.091,-3.895 				"/>
				<polygon clip-path="url(#SVGID_4_)" fill="#C33F35" points="48.654,-3.895 -8.259,53.02 -8.259,49.237 44.873,-3.895 				"/>
				<polygon clip-path="url(#SVGID_4_)" fill="#C43F35" points="52.433,-3.895 -8.259,56.801 -8.259,53.02 48.654,-3.895 				"/>
				<polygon clip-path="url(#SVGID_4_)" fill="#C53F35" points="56.209,-3.895 -8.259,60.578 -8.259,56.801 52.433,-3.895 				"/>
				<polygon clip-path="url(#SVGID_4_)" fill="#C64035" points="59.991,-3.895 -8.259,64.355 -8.259,60.578 56.209,-3.895 				"/>
				<polygon clip-path="url(#SVGID_4_)" fill="#C74035" points="63.769,-3.895 -8.259,68.138 -8.259,64.355 59.991,-3.895 				"/>
				<polygon clip-path="url(#SVGID_4_)" fill="#C84035" points="67.551,-3.895 -8.259,71.915 -8.259,68.138 63.769,-3.895 				"/>
				<polygon clip-path="url(#SVGID_4_)" fill="#C94035" points="71.328,-3.895 -8.259,75.696 -8.259,71.915 67.551,-3.895 				"/>
				<polygon clip-path="url(#SVGID_4_)" fill="#CA4035" points="75.109,-3.895 -8.259,79.474 -8.259,75.696 71.328,-3.895 				"/>
				<polygon clip-path="url(#SVGID_4_)" fill="#CB4035" points="78.887,-3.895 -8.259,83.256 -8.259,79.474 75.109,-3.895 				"/>
				<polygon clip-path="url(#SVGID_4_)" fill="#CC4035" points="82.669,-3.895 -8.259,87.033 -8.259,83.256 78.887,-3.895 				"/>
				<polygon clip-path="url(#SVGID_4_)" fill="#CE4135" points="86.446,-3.895 -8.259,90.815 -8.259,87.033 82.669,-3.895 				"/>
				<polygon clip-path="url(#SVGID_4_)" fill="#CF4135" points="90.229,-3.895 -8.259,94.593 -8.259,90.815 86.446,-3.895 				"/>
				<polygon clip-path="url(#SVGID_4_)" fill="#D04135" points="94.006,-3.895 -8.259,98.374 -8.259,94.593 90.229,-3.895 				"/>
				<polygon clip-path="url(#SVGID_4_)" fill="#D14135" points="97.782,-3.895 -8.259,102.151 -8.259,98.374 94.006,-3.895 				"/>
				<polygon clip-path="url(#SVGID_4_)" fill="#D24135" points="101.564,-3.895 -8.259,105.934 -8.259,102.151 97.782,-3.895 				
					"/>
				<polygon clip-path="url(#SVGID_4_)" fill="#D34135" points="105.347,-3.895 -8.259,109.711 -8.259,105.934 101.564,-3.895 				
					"/>
				<polygon clip-path="url(#SVGID_4_)" fill="#D44135" points="105.739,-0.505 -4.869,110.104 -8.259,110.104 -8.259,109.711 
					105.347,-3.895 105.739,-3.895 				"/>
				<polygon clip-path="url(#SVGID_4_)" fill="#D54235" points="105.739,3.272 -1.092,110.104 -4.869,110.104 105.739,-0.505 				
					"/>
				<polygon clip-path="url(#SVGID_4_)" fill="#D64235" points="105.739,7.049 2.685,110.104 -1.092,110.104 105.739,3.272 				"/>
				<polygon clip-path="url(#SVGID_4_)" fill="#D74235" points="105.739,10.832 6.467,110.104 2.685,110.104 105.739,7.049 				"/>
				<polygon clip-path="url(#SVGID_4_)" fill="#D84235" points="105.739,14.613 10.249,110.104 6.467,110.104 105.739,10.832 				
					"/>
				<polygon clip-path="url(#SVGID_4_)" fill="#D94235" points="105.739,18.391 14.026,110.104 10.249,110.104 105.739,14.613 				
					"/>
				<polygon clip-path="url(#SVGID_4_)" fill="#DA4235" points="105.739,22.168 17.804,110.104 14.026,110.104 105.739,18.391 				
					"/>
				<polygon clip-path="url(#SVGID_4_)" fill="#DB4235" points="105.739,25.95 21.585,110.104 17.804,110.104 105.739,22.168 				
					"/>
				<polygon clip-path="url(#SVGID_4_)" fill="#DC4235" points="105.739,29.727 25.363,110.104 21.585,110.104 105.739,25.95 				
					"/>
				<polygon clip-path="url(#SVGID_4_)" fill="#DD4335" points="105.739,33.509 29.145,110.104 25.363,110.104 105.739,29.727 				
					"/>
				<polygon clip-path="url(#SVGID_4_)" fill="#DE4335" points="105.739,37.286 32.922,110.104 29.145,110.104 105.739,33.509 				
					"/>
				<polygon clip-path="url(#SVGID_4_)" fill="#DF4335" points="105.739,41.068 36.704,110.104 32.922,110.104 105.739,37.286 				
					"/>
				<polygon clip-path="url(#SVGID_4_)" fill="#E04335" points="105.739,44.846 40.481,110.104 36.704,110.104 105.739,41.068 				
					"/>
				<polygon clip-path="url(#SVGID_4_)" fill="#E04335" points="40.481,110.104 105.739,44.846 105.739,110.104 				"/>
			</g>
		</g>
	</g>
	<g>
		<g>
			<polygon fill-rule="evenodd" clip-rule="evenodd" fill="#AD352D" points="57.763,47.797 57.763,41.54 51.506,41.54 
				51.506,37.081 57.763,37.081 57.763,30.826 62.221,30.826 62.221,37.081 68.475,37.081 68.475,41.54 62.221,41.54 62.221,47.797 
							"/>
		</g>
		<g>
			<path fill-rule="evenodd" clip-rule="evenodd" fill="#AD352D" d="M17.248,52.786c-6.953-7.047-6.876-18.41,0.171-25.363
				c6.813-6.722,17.605-6.82,24.6-0.455l-5.223,5.223l0.008-0.008c-3.849-3.765-10.216-3.595-14.166,0.365
				c-4.155,4.163-4.2,10.967-0.102,15.187c4.1,4.222,11.261,4.262,15.101,0.07c1.067-1.164,1.67-2.542,1.967-4.046h-9.583v-7.152
				h16.877c0.938,6.009-0.193,12.068-4.124,16.295C36.256,59.902,24.202,59.834,17.248,52.786"/>
		</g>
		<g>
			<polygon fill-rule="evenodd" clip-rule="evenodd" fill="#EFEFEF" points="57.618,47.376 57.618,41.12 51.364,41.12 
				51.364,36.661 57.618,36.661 57.618,30.405 62.081,30.405 62.081,36.661 68.335,36.661 68.335,41.12 62.081,41.12 62.081,47.376 
							"/>
		</g>
		<g>
			<path fill-rule="evenodd" clip-rule="evenodd" fill="#EFEFEF" d="M17.109,52.365c-6.953-7.047-6.876-18.408,0.169-25.362
				c6.813-6.722,17.606-6.82,24.603-0.456l-5.226,5.223l0.01-0.008c-3.85-3.765-10.216-3.594-14.166,0.365
				c-4.156,4.164-4.2,10.968-0.102,15.187c4.1,4.221,11.261,4.262,15.102,0.069c1.065-1.163,1.667-2.542,1.964-4.046h-9.583
				l-0.001-7.152h16.878c0.939,6.008-0.192,12.069-4.126,16.294C36.118,59.482,24.063,59.413,17.109,52.365"/>
		</g>
		<g>
			<rect x="57.618" y="30.405" fill-rule="evenodd" clip-rule="evenodd" fill="#FFFFFF" width="4.463" height="0.501"/>
		</g>
		<g>
			<rect x="62.081" y="36.661" fill-rule="evenodd" clip-rule="evenodd" fill="#FFFFFF" width="6.254" height="0.501"/>
		</g>
		<g>
			<rect x="51.364" y="36.661" fill-rule="evenodd" clip-rule="evenodd" fill="#FFFFFF" width="6.254" height="0.501"/>
		</g>
		<g>
			<path fill-rule="evenodd" clip-rule="evenodd" fill="#FFFFFF" d="M17.278,27.003c6.813-6.722,17.606-6.82,24.603-0.456
				l-0.271,0.271l0.003-0.004c-7-6.124-17.607-5.944-24.335,0.694c-3.489,3.442-5.27,7.968-5.333,12.515
				C11.88,35.308,13.661,30.574,17.278,27.003"/>
		</g>
		<g>
			<path fill-rule="evenodd" clip-rule="evenodd" fill="#FFFFFF" d="M46.758,36.69H29.88v-0.503h16.878
				c0.219,1.396,0.325,2.794,0.312,4.174C47.055,39.146,46.949,37.917,46.758,36.69"/>
		</g>
		<g>
			<path fill-rule="evenodd" clip-rule="evenodd" fill="#FFFFFF" d="M22.397,47.82c-2.094-2.156-3.107-4.986-3.042-7.796
				c0.059,2.642,1.072,5.265,3.042,7.292c4.1,4.221,11.261,4.262,15.102,0.069c0.945-1.032,1.525-2.233,1.851-3.542h0.113
				c-0.296,1.504-0.899,2.883-1.964,4.046C33.658,52.082,26.498,52.039,22.397,47.82"/>
		</g>
	</g>
</g>
</svg>
