<?xml version="1.0" encoding="utf-8"?>
<!-- Generator: Adobe Illustrator 16.0.4, SVG Export Plug-In . SVG Version: 6.00 Build 0)  -->
<!DOCTYPE svg PUBLIC "-//W3C//DTD SVG 1.1//EN" "http://www.w3.org/Graphics/SVG/1.1/DTD/svg11.dtd">
<svg version="1.1" id="Layer_1" xmlns="http://www.w3.org/2000/svg" xmlns:xlink="http://www.w3.org/1999/xlink" x="0px" y="0px"
	 width="80px" height="80px" viewBox="0 0 80 80" enable-background="new 0 0 80 80" xml:space="preserve">
<g>
	<radialGradient id="SVGID_1_" cx="24.5308" cy="88.875" r="92.1707" gradientUnits="userSpaceOnUse">
		<stop  offset="0" style="stop-color:#FFD676"/>
		<stop  offset="0.2463" style="stop-color:#F2A454"/>
		<stop  offset="0.3793" style="stop-color:#F05C3C"/>
		<stop  offset="0.6995" style="stop-color:#C22F86"/>
		<stop  offset="0.9568" style="stop-color:#6666AD"/>
		<stop  offset="0.9852" style="stop-color:#5C6CB2"/>
		<stop  offset="1" style="stop-color:#5C6CB2"/>
	</radialGradient>
	<path fill="url(#SVGID_1_)" d="M79.626,39.812c0,21.989-17.825,39.812-39.813,39.812C17.823,79.625,0,61.802,0,39.812
		C0,17.824,17.824,0,39.812,0S79.626,17.824,79.626,39.812"/>
	<g>
		<g>
			<defs>
				<rect id="SVGID_2_" x="21.692" y="21.574" width="36.241" height="36.246"/>
			</defs>
			<clipPath id="SVGID_3_">
				<use xlink:href="#SVGID_2_"  overflow="visible"/>
			</clipPath>
			<path clip-path="url(#SVGID_3_)" fill="#FFFFFF" d="M39.81,24.838c4.838,0,5.414,0.019,7.323,0.106
				c1.767,0.08,2.726,0.376,3.364,0.624c0.846,0.329,1.451,0.722,2.086,1.355c0.634,0.633,1.027,1.237,1.354,2.083
				c0.247,0.639,0.544,1.599,0.624,3.366c0.088,1.911,0.106,2.484,0.106,7.323c0,4.839-0.019,5.412-0.106,7.323
				c-0.08,1.769-0.377,2.729-0.624,3.364c-0.327,0.849-0.721,1.451-1.354,2.086c-0.635,0.634-1.24,1.027-2.086,1.354
				c-0.639,0.247-1.598,0.544-3.364,0.624c-1.909,0.088-2.482,0.106-7.323,0.106c-4.84,0-5.411-0.019-7.322-0.106
				c-1.769-0.08-2.728-0.377-3.365-0.624c-0.846-0.327-1.45-0.721-2.085-1.354c-0.635-0.635-1.025-1.237-1.356-2.086
				c-0.248-0.636-0.543-1.596-0.622-3.364c-0.088-1.911-0.107-2.483-0.107-7.323c0-4.839,0.019-5.412,0.107-7.323
				c0.079-1.767,0.375-2.727,0.622-3.366c0.331-0.846,0.721-1.45,1.356-2.083c0.635-0.634,1.239-1.026,2.085-1.355
				c0.637-0.248,1.596-0.544,3.365-0.624C34.399,24.857,34.97,24.838,39.81,24.838 M39.81,21.574c-4.922,0-5.539,0.021-7.472,0.109
				c-1.929,0.088-3.247,0.394-4.399,0.842c-1.192,0.463-2.203,1.083-3.209,2.09c-1.007,1.007-1.627,2.018-2.09,3.21
				c-0.45,1.152-0.754,2.47-0.842,4.399c-0.088,1.933-0.11,2.55-0.11,7.471s0.021,5.54,0.11,7.472
				c0.088,1.929,0.392,3.246,0.842,4.4c0.463,1.189,1.083,2.2,2.09,3.209c1.006,1.006,2.017,1.626,3.209,2.09
				c1.152,0.448,2.471,0.754,4.399,0.842c1.933,0.089,2.549,0.11,7.472,0.11c4.92,0,5.538-0.021,7.471-0.11
				c1.93-0.088,3.247-0.394,4.398-0.842c1.192-0.464,2.203-1.084,3.212-2.09c1.006-1.009,1.626-2.02,2.09-3.209
				c0.448-1.154,0.755-2.472,0.842-4.4c0.089-1.933,0.11-2.551,0.11-7.472s-0.021-5.539-0.11-7.471
				c-0.087-1.93-0.394-3.247-0.842-4.399c-0.464-1.192-1.084-2.203-2.09-3.21c-1.009-1.007-2.02-1.626-3.212-2.09
				c-1.151-0.448-2.469-0.754-4.398-0.842C45.348,21.595,44.73,21.574,39.81,21.574z"/>
		</g>
		<path fill="#FFFFFF" d="M39.81,30.39c-5.14,0-9.305,4.167-9.305,9.306c0,5.141,4.165,9.306,9.305,9.306s9.306-4.165,9.306-9.306
			C49.116,34.557,44.95,30.39,39.81,30.39 M39.81,45.737c-3.336,0-6.041-2.704-6.041-6.042c0-3.336,2.704-6.041,6.041-6.041
			c3.334,0,6.042,2.705,6.042,6.041C45.853,43.033,43.145,45.737,39.81,45.737z"/>
		<path fill="#FFFFFF" d="M51.659,30.022c0,1.201-0.974,2.175-2.175,2.175c-1.202,0-2.175-0.974-2.175-2.175
			s0.973-2.175,2.175-2.175C50.686,27.848,51.659,28.821,51.659,30.022"/>
	</g>
</g>
</svg>
