<?xml version="1.0" encoding="utf-8"?>
<!-- Generator: Adobe Illustrator 16.0.4, SVG Export Plug-In . SVG Version: 6.00 Build 0)  -->
<!DOCTYPE svg PUBLIC "-//W3C//DTD SVG 1.1//EN" "http://www.w3.org/Graphics/SVG/1.1/DTD/svg11.dtd">
<svg version="1.1" id="Layer_1" xmlns="http://www.w3.org/2000/svg" xmlns:xlink="http://www.w3.org/1999/xlink" x="0px" y="0px"
	 width="79.999px" height="80px" viewBox="-27.875 412 79.999 80" enable-background="new -27.875 412 79.999 80"
	 xml:space="preserve">
<g id="LinKeDin_1_">
	<circle fill="#187FB8" cx="12.02" cy="451.895" r="39.895"/>
	<g id="LinkedIn_2_">
		<rect x="-5.617" y="445.911" fill="#FFFFFF" width="7.559" height="23.938"/>
		<path fill="#FFFFFF" d="M22.52,445.596c-4.305,0-7.034,2.311-7.56,3.99v-3.78H6.457c0.104,1.995,0,23.938,0,23.938h8.503V456.83
			c0-0.734,0-1.47,0.21-1.995c0.63-1.47,1.785-2.939,4.095-2.939c2.938,0,4.305,2.204,4.305,5.46v12.389h8.608V456.41
			C32.073,449.061,27.874,445.596,22.52,445.596z"/>
		<path fill="#FFFFFF" d="M-2.048,434.573c-2.835,0-4.62,1.784-4.62,4.198c0,2.311,1.785,4.095,4.514,4.095h0.105
			c2.835,0,4.619-1.784,4.619-4.198C2.467,436.357,0.788,434.573-2.048,434.573z"/>
	</g>
</g>
</svg>
