<?xml version="1.0" encoding="utf-8"?>
<!-- Generator: Adobe Illustrator 16.0.4, SVG Export Plug-In . SVG Version: 6.00 Build 0)  -->
<!DOCTYPE svg PUBLIC "-//W3C//DTD SVG 1.1//EN" "http://www.w3.org/Graphics/SVG/1.1/DTD/svg11.dtd">
<svg version="1.1" id="Layer_1" xmlns="http://www.w3.org/2000/svg" xmlns:xlink="http://www.w3.org/1999/xlink" x="0px" y="0px"
	 width="79.999px" height="80px" viewBox="190.061 412 79.999 80" enable-background="new 190.061 412 79.999 80"
	 xml:space="preserve">
<g>
	<circle fill="#BD081C" cx="230.05" cy="452.135" r="40.019"/>
</g>
<g id="KOXCL3.tif">
	<g>
		<path fill-rule="evenodd" clip-rule="evenodd" fill="#FFFFFF" d="M218.958,474.399c-0.703-3.84-0.661-7.645,0.306-11.452
			c0.975-3.829,1.844-7.684,2.717-11.536c0.11-0.484,0.065-1.056-0.074-1.537c-0.732-2.505-0.806-4.956,0.469-7.318
			c0.645-1.191,1.581-2.066,2.937-2.423c2.196-0.577,4.217,0.728,4.25,2.987c0.022,1.51-0.321,3.048-0.659,4.537
			c-0.37,1.628-0.963,3.205-1.385,4.824c-0.859,3.305,1.728,5.91,5.063,5.136c2.228-0.519,3.661-2.026,4.73-3.923
			c1.691-3.002,2.266-6.279,2.217-9.682c-0.077-5.324-3.673-9.094-8.985-9.506c-2.1-0.162-4.156-0.038-6.15,0.662
			c-5.389,1.892-8.736,7.375-7.829,13.02c0.179,1.111,0.763,2.209,1.373,3.18c0.454,0.719,0.72,1.327,0.392,2.126
			c-0.039,0.091-0.055,0.192-0.072,0.292c-0.471,2.451-1.09,2.452-3.075,1.024c-2.609-1.876-3.487-4.699-3.626-7.737
			c-0.354-7.75,4.803-14.381,12.665-16.279c4.988-1.203,9.895-1.011,14.378,1.756c5.336,3.293,7.618,8.162,7.005,14.406
			c-0.319,3.248-1.144,6.329-2.938,9.087c-2.159,3.318-5.12,5.423-9.126,5.925c-3.037,0.381-5.635-0.399-7.746-2.924
			c-0.222,0.8-0.465,1.481-0.596,2.184c-0.909,4.853-2.746,9.287-5.837,13.172C219.226,474.399,219.091,474.399,218.958,474.399z"/>
	</g>
</g>
</svg>
