<?xml version="1.0" encoding="utf-8"?>
<!-- Generator: Adobe Illustrator 16.0.4, SVG Export Plug-In . SVG Version: 6.00 Build 0)  -->
<!DOCTYPE svg PUBLIC "-//W3C//DTD SVG 1.1//EN" "http://www.w3.org/Graphics/SVG/1.1/DTD/svg11.dtd">
<svg version="1.1" id="Layer_1" xmlns="http://www.w3.org/2000/svg" xmlns:xlink="http://www.w3.org/1999/xlink" x="0px" y="0px"
	 width="79.999px" height="80px" viewBox="296.792 412 79.999 80" enable-background="new 296.792 412 79.999 80"
	 xml:space="preserve">
<g>
	<circle fill="#E8901A" cx="336.793" cy="452.135" r="40.019"/>
</g>
<g id="Kwj1vQ.tif">
	<g>
		<path fill-rule="evenodd" clip-rule="evenodd" fill="#FFFFFF" d="M357.043,471.428c-2.493,0-4.878,0-7.419,0
			c-0.229-8.771-3.261-16.419-9.477-22.641c-6.19-6.194-13.762-9.299-22.612-9.503c0-2.449,0-4.871,0-7.296
			C336.402,430.943,357.251,447.844,357.043,471.428z"/>
		<path fill-rule="evenodd" clip-rule="evenodd" fill="#FFFFFF" d="M317.463,452.735c0-2.492,0-4.879,0-7.264
			c12.709-0.759,26.315,10.745,26.063,25.944c-0.404,0.022-0.817,0.062-1.228,0.064c-2.058,0.009-4.114,0.004-6.164,0.004
			C335.891,461.441,328.065,452.99,317.463,452.735z"/>
		<path fill-rule="evenodd" clip-rule="evenodd" fill="#FFFFFF" d="M327.902,466.157c0.02,2.965-2.275,5.247-5.254,5.231
			c-2.89-0.018-5.196-2.306-5.225-5.178c-0.028-2.844,2.283-5.182,5.17-5.227C325.563,460.937,327.883,463.198,327.902,466.157z"/>
	</g>
</g>
</svg>
