<?xml version="1.0" encoding="utf-8"?>
<!-- Generator: Adobe Illustrator 16.0.4, SVG Export Plug-In . SVG Version: 6.00 Build 0)  -->
<!DOCTYPE svg PUBLIC "-//W3C//DTD SVG 1.1//EN" "http://www.w3.org/Graphics/SVG/1.1/DTD/svg11.dtd">
<svg version="1.1" id="Layer_1" xmlns="http://www.w3.org/2000/svg" xmlns:xlink="http://www.w3.org/1999/xlink" x="0px" y="0px"
	 width="79.999px" height="80px" viewBox="-27.875 517.333 79.999 80" enable-background="new -27.875 517.333 79.999 80"
	 xml:space="preserve">
<g id="LinKeDin_2_">
	<circle fill="#187FB8" cx="12.02" cy="557.333" r="39.895"/>
</g>
<g id="N2F2KL.tif">
	<g>
		<path fill="#FFFFFF" d="M18.225,580.09c-0.459,0-0.92,0-1.381,0c-0.091-0.026-0.182-0.059-0.274-0.076
			c-1.768-0.335-3.082-1.251-3.585-3.03c-0.208-0.742-0.223-1.555-0.233-2.336c-0.032-2.446-0.017-4.895-0.028-7.342
			c-0.001-0.127-0.042-0.339-0.117-0.368c-0.334-0.122-0.688-0.193-1.099-0.3c0,0.203,0,0.345,0,0.487
			c-0.015,2.882-0.019,5.765-0.047,8.648c-0.019,1.858-1.129,3.38-2.885,3.992c-0.385,0.133-0.788,0.217-1.183,0.324
			c-0.46,0-0.92,0-1.381,0c-0.091-0.026-0.182-0.061-0.274-0.077c-2.133-0.375-3.821-1.483-5.096-3.2
			c-1.264-1.702-1.817-3.671-1.964-5.762c-0.117-1.667,0.059-3.313,0.409-4.943c0.134-0.625,0.292-1.244,0.442-1.876
			c-0.103-0.051-0.185-0.101-0.272-0.138c-1.807-0.77-3.542-1.671-5.171-2.772c-1.411-0.952-2.717-2.028-3.813-3.332
			c-0.249-0.295-0.411-0.727-0.455-1.113c-0.075-0.659,0.469-1.067,1.11-0.887c0.263,0.073,0.498,0.24,0.743,0.369
			c0.119,0.062,0.234,0.132,0.416,0.236c0-0.218,0-0.35,0-0.479c-0.001-5.488-0.001-10.975,0.001-16.463
			c0-0.436-0.008-0.877,0.055-1.305c0.188-1.308,0.787-2.392,1.924-3.099c0.473-0.294,1.029-0.453,1.549-0.673
			c11.003,0,22.005,0,33.008,0c0.067,0.024,0.133,0.056,0.202,0.073c0.953,0.245,1.762,0.711,2.377,1.5
			c0.717,0.923,0.979,1.978,0.979,3.124c-0.003,5.607-0.002,11.216-0.002,16.824c0,0.14,0,0.279,0,0.478
			c0.348-0.198,0.629-0.381,0.929-0.519c0.347-0.16,0.711-0.185,1.026,0.081c0.299,0.254,0.345,0.6,0.281,0.962
			c-0.027,0.152-0.062,0.327-0.158,0.439c-0.521,0.613-1.022,1.255-1.607,1.806c-1.797,1.688-3.878,2.962-6.089,4.028
			c-0.607,0.295-1.227,0.564-1.854,0.852c0.026,0.127,0.05,0.23,0.071,0.336c0.227,1.138,0.51,2.269,0.669,3.416
			c0.342,2.463,0.158,4.883-0.886,7.18c-0.839,1.842-2.114,3.305-3.969,4.164C19.845,579.667,19.016,579.838,18.225,580.09z
			 M12.718,562.801c0.048-0.236,0.071-0.363,0.1-0.491c0.198-0.899,0.771-1.504,1.687-1.617c0.715-0.089,1.449-0.096,2.17-0.061
			c2.725,0.136,5.426,0.019,8.084-0.639c1.71-0.425,3.341-1.065,4.911-1.866c0.247-0.127,0.348-0.251,0.348-0.541
			c-0.01-5.477-0.003-10.954-0.015-16.431c-0.002-0.614-0.05-1.237-0.162-1.841c-0.171-0.917-0.597-1.665-1.528-2.059
			c-0.731-0.308-1.49-0.315-2.248-0.316c-9.234-0.008-18.466-0.008-27.7,0.001c-0.578,0-1.165,0.034-1.733,0.138
			c-0.875,0.161-1.568,0.617-1.803,1.53c-0.148,0.581-0.285,1.187-0.287,1.782c-0.027,5.803-0.022,11.607-0.032,17.411
			c0,0.205,0.057,0.316,0.251,0.415c3.104,1.594,6.414,2.375,9.889,2.447c1.379,0.029,2.761-0.037,4.141-0.074
			c0.976-0.025,1.789,0.301,2.484,0.991C11.701,562.002,12.191,562.359,12.718,562.801z"/>
		<path fill-rule="evenodd" clip-rule="evenodd" fill="#FFFFFF" d="M5.886,558.506c-2.105-0.119-3.838-1.06-4.873-3.104
			c-0.952-1.88-0.352-4.446,1.325-5.791c1.965-1.574,4.115-1.825,6.346-0.713c3.482,1.735,3.812,6.289,0.702,8.526
			C8.377,558.149,7.247,558.473,5.886,558.506z"/>
		<path fill-rule="evenodd" clip-rule="evenodd" fill="#FFFFFF" d="M18.436,558.492c-1.833-0.113-3.543-0.992-4.596-2.968
			c-0.821-1.538-0.582-3.686,0.464-5.08c1.791-2.385,5.382-2.925,7.93-1.087c2.521,1.818,2.74,5.607,0.412,7.66
			C21.525,558.004,20.198,558.51,18.436,558.492z"/>
	</g>
</g>
</svg>
