<?xml version="1.0" encoding="utf-8"?>
<!-- Generator: Adobe Illustrator 16.0.4, SVG Export Plug-In . SVG Version: 6.00 Build 0)  -->
<!DOCTYPE svg PUBLIC "-//W3C//DTD SVG 1.1//EN" "http://www.w3.org/Graphics/SVG/1.1/DTD/svg11.dtd">
<svg version="1.1" id="Layer_1" xmlns="http://www.w3.org/2000/svg" xmlns:xlink="http://www.w3.org/1999/xlink" x="0px" y="0px"
	 width="80px" height="80px" viewBox="80.729 517.333 80 80" enable-background="new 80.729 517.333 80 80" xml:space="preserve">
<g>
	<circle fill="#45546B" cx="120.748" cy="557.332" r="40.019"/>
</g>
<g id="iLeR65.tif">
	<g>
		<path fill-rule="evenodd" clip-rule="evenodd" fill="#FFFFFF" d="M113.322,553.486c-1.765,0-3.464,0-5.197,0
			c0-1.767,0-3.483,0-5.236c0.49-0.077,0.989-0.128,1.477-0.238c3.227-0.729,5.434-3.47,5.463-6.78
			c0.012-1.14,0.002-2.281,0.002-3.459c2.345,0,4.644,0,7.011,0c0,2.864,0,5.739,0,8.663c2.931,0,5.793,0,8.699,0
			c0,2.36,0,4.671,0,7.032c-2.867,0-5.729,0-8.675,0c0,0.259,0,0.468,0,0.677c0,4.287,0.012,8.573-0.008,12.86
			c-0.006,1.088,0.496,1.831,1.386,2.352c1.341,0.786,2.801,0.813,4.28,0.593c1.605-0.237,3.067-0.849,4.396-1.781
			c0.074-0.052,0.151-0.1,0.231-0.143c0.027-0.017,0.064-0.013,0.144-0.025c0.013,0.157,0.035,0.311,0.035,0.463
			c0.002,1.709-0.008,3.416,0.01,5.123c0.003,0.351-0.096,0.558-0.413,0.733c-2.39,1.327-4.948,2.045-7.675,2.167
			c-2.151,0.095-4.288,0.006-6.328-0.778c-1.965-0.756-3.584-1.95-4.411-3.954c-0.268-0.649-0.4-1.401-0.405-2.108
			c-0.034-5.14-0.02-10.28-0.021-15.421C113.322,554.008,113.322,553.792,113.322,553.486z"/>
	</g>
</g>
</svg>
