<?xml version="1.0" encoding="utf-8"?>
<!-- Generator: Adobe Illustrator 16.0.4, SVG Export Plug-In . SVG Version: 6.00 Build 0)  -->
<!DOCTYPE svg PUBLIC "-//W3C//DTD SVG 1.1//EN" "http://www.w3.org/Graphics/SVG/1.1/DTD/svg11.dtd">
<svg version="1.1" id="Layer_1" xmlns="http://www.w3.org/2000/svg" xmlns:xlink="http://www.w3.org/1999/xlink" x="0px" y="0px"
	 width="80px" height="80px" viewBox="0 0 80 80" enable-background="new 0 0 80 80" xml:space="preserve">
<g>
	<path fill="#29AAE1" d="M80,39.853c0,22.092-17.909,40-40,40c-22.093,0-40-17.907-40-40c0-22.092,17.908-40,40-40
		C62.091-0.146,80,17.761,80,39.853"/>
	<path fill="#FFFFFF" d="M33.482,53.877c13.258,0,20.507-10.981,20.507-20.505c0-0.312-0.007-0.623-0.021-0.931
		c1.407-1.018,2.63-2.287,3.597-3.732c-1.293,0.573-2.683,0.96-4.14,1.134c1.487-0.892,2.63-2.303,3.169-3.986
		c-1.393,0.825-2.935,1.426-4.577,1.749c-1.313-1.401-3.187-2.277-5.26-2.277c-3.979,0-7.208,3.227-7.208,7.206
		c0,0.566,0.063,1.116,0.187,1.644c-5.989-0.301-11.301-3.169-14.855-7.53c-0.619,1.064-0.977,2.302-0.977,3.622
		c0,2.501,1.273,4.708,3.208,5.999c-1.182-0.037-2.292-0.36-3.264-0.901c-0.002,0.03-0.002,0.06-0.002,0.092
		c0,3.491,2.485,6.404,5.783,7.064c-0.605,0.166-1.243,0.254-1.901,0.254c-0.463,0-0.916-0.045-1.354-0.129
		c0.917,2.863,3.578,4.946,6.733,5.006c-2.467,1.934-5.575,3.084-8.951,3.084c-0.581,0-1.155-0.033-1.719-0.1
		C25.625,52.684,29.412,53.877,33.482,53.877"/>
</g>
</svg>
