<?xml version="1.0" encoding="utf-8"?>
<!-- Generator: Adobe Illustrator 16.0.4, SVG Export Plug-In . SVG Version: 6.00 Build 0)  -->
<!DOCTYPE svg PUBLIC "-//W3C//DTD SVG 1.1//EN" "http://www.w3.org/Graphics/SVG/1.1/DTD/svg11.dtd">
<svg version="1.1" id="Layer_1" xmlns="http://www.w3.org/2000/svg" xmlns:xlink="http://www.w3.org/1999/xlink" x="0px" y="0px"
	 width="80px" height="80px" viewBox="80.729 412 80 80" enable-background="new 80.729 412 80 80" xml:space="preserve">
<g id="Vimeo_6_">
	<circle fill="#1CB1E6" cx="120.717" cy="451.93" r="39.885"/>
	<g id="Vimeo_2_">
		<path fill="#FFFFFF" d="M134.362,435.661c-5.354-0.21-8.921,2.835-10.916,8.922c0.943-0.42,1.89-0.63,2.833-0.63
			c1.994,0,2.834,1.05,2.625,3.254c-0.105,1.363-0.945,3.254-2.625,5.772c-1.574,2.519-2.833,3.778-3.673,3.778
			c-1.051,0-1.994-1.889-2.834-5.772c-0.314-1.154-0.84-3.989-1.574-8.712c-0.734-4.304-2.521-6.297-5.563-6.087
			c-1.26,0.104-3.148,1.259-5.668,3.464c-1.889,1.679-3.672,3.253-5.562,4.933l1.784,2.31c1.68-1.155,2.729-1.785,3.043-1.785
			c1.366,0,2.521,2.1,3.675,6.193c1.049,3.777,2.1,7.557,3.148,11.23c1.574,4.094,3.463,6.087,5.669,6.087
			c3.672,0,8.081-3.358,13.329-10.075c5.038-6.403,7.661-11.441,7.872-15.22C140.239,438.285,138.35,435.767,134.362,435.661z"/>
	</g>
</g>
</svg>
