<?xml version="1.0" encoding="utf-8"?>
<!-- Generator: Adobe Illustrator 16.0.4, SVG Export Plug-In . SVG Version: 6.00 Build 0)  -->
<!DOCTYPE svg PUBLIC "-//W3C//DTD SVG 1.1//EN" "http://www.w3.org/Graphics/SVG/1.1/DTD/svg11.dtd">
<svg version="1.1" id="Layer_1" xmlns="http://www.w3.org/2000/svg" xmlns:xlink="http://www.w3.org/1999/xlink" x="0px" y="0px"
	 width="80px" height="80px" viewBox="296.792 197.562 80 80" enable-background="new 296.792 197.562 80 80" xml:space="preserve">
<g>
	<path fill="#BA2032" d="M376.522,237.482c0,22.018-17.847,39.864-39.864,39.864c-22.019,0-39.865-17.847-39.865-39.864
		s17.847-39.865,39.865-39.865C358.675,197.617,376.522,215.465,376.522,237.482"/>
	<path fill="#FFFFFF" d="M348.648,224.926H324.67c-3.394,0-6.142,2.747-6.142,6.141v13.16c0,3.394,2.752,6.145,6.142,6.145h23.978
		c3.394,0,6.142-2.751,6.142-6.145v-13.16C354.79,227.673,352.042,224.926,348.648,224.926 M331.914,244.896l-0.116-14.491
		l12.522,6.83L331.914,244.896z"/>
</g>
</svg>
